<svg xmlns="http://www.w3.org/2000/svg" xml:space="preserve" width="70mm" height="70mm" style="shape-rendering:geometricPrecision;text-rendering:geometricPrecision;image-rendering:optimizeQuality;fill-rule:evenodd;clip-rule:evenodd" viewBox="0 0 1713.14 1713.14"><defs><style>.str0{stroke:#373435;stroke-width:4.89;stroke-miterlimit:22.9256}.fil1,.fil2{fill:#4e2424}.fil1{fill-rule:nonzero}</style></defs><g id="Capa_x0020_1"><path d="M856.57 0c236.52 0 450.67 95.88 605.68 250.89 155.01 155.01 250.89 369.16 250.89 605.68 0 236.53-95.88 450.67-250.89 605.68-155.01 155.01-369.16 250.89-605.68 250.89-236.53 0-450.67-95.88-605.68-250.89C95.88 1307.24 0 1093.1 0 856.57 0 620.05 95.88 405.9 250.89 250.89 405.9 95.88 620.04 0 856.57 0zm579.26 277.31C1287.59 129.07 1082.79 37.38 856.57 37.38c-226.22 0-431.02 91.69-579.26 239.93S37.38 630.35 37.38 856.57c0 226.22 91.69 431.02 239.93 579.26s353.04 239.93 579.26 239.93c226.22 0 431.02-91.69 579.26-239.93s239.93-353.04 239.93-579.26c0-226.22-91.69-431.02-239.93-579.26z" style="fill:#4e2424;fill-rule:nonzero"/><path d="m391.1 448.1-34.43 44.17 16.85 23.34-31.02 39.8-95.27-150.6 33.27-42.68 169.15 55.83-31.83 40.83-26.72-10.68zm-35.08-14.07-58.28-23.29 36.76 50.9 21.52-27.61zm-.54-152.83 67.77-46.56c14.77-10.14 28.33-14.07 40.76-11.76 12.4 2.33 23.29 10.29 32.65 23.9 9.59 13.97 13.09 27.67 10.47 41.03-2.59 13.38-12.14 25.73-28.59 37.03l-22.34 15.35 35.15 51.16-40.88 28.09-94.98-138.24zm81.48 30.99 10.03-6.89c7.92-5.44 12.48-10.7 13.7-15.76 1.23-5.06.3-9.82-2.77-14.3-2.98-4.34-6.89-7.06-11.76-8.16-4.84-1.13-11.1.94-18.77 6.22l-11.66 8.01 21.23 30.89zm66.8-130.62 75.78-31.9c16.51-6.95 30.59-8.05 42.3-3.28 11.67 4.79 20.73 14.78 27.14 30 6.58 15.62 7.23 29.75 1.97 42.3-5.25 12.59-17.09 22.74-35.49 30.49l-24.98 10.52 24.08 57.21-45.72 19.24-65.08-154.59zm73.53 46.82 11.23-4.73c8.85-3.72 14.38-7.96 16.61-12.67 2.22-4.7 2.28-9.56.17-14.56-2.04-4.86-5.32-8.31-9.86-10.37-4.51-2.08-11.06-1.32-19.64 2.29l-13.04 5.49 14.54 34.54zm126.58 53.79-24.64-165.91 81.48-12.1c15.1-2.24 26.87-2.61 35.23-1.05 8.39 1.52 15.59 5.62 21.58 12.23 6 6.65 9.76 15.29 11.34 25.87 1.36 9.19.67 17.43-2.1 24.66-2.72 7.27-7.08 13.45-13.05 18.59-3.77 3.25-9.19 6.3-16.19 9.12 6.13 1.18 10.66 2.56 13.62 4.21 1.97 1.09 5.02 3.64 9.1 7.57 4.05 3.94 6.85 7.04 8.34 9.3l30.88 44.4-55.25 8.2-33.63-46.71c-4.29-6.07-7.87-9.88-10.74-11.47-3.91-2.02-8.12-2.7-12.57-2.04l-4.31.64 9.98 67.2-49.06 7.29zm34.44-105.77 20.67-3.07c2.21-.33 6.44-1.75 12.63-4.21 3.14-1.14 5.53-3.27 7.14-6.39 1.64-3.13 2.2-6.49 1.66-10.11-.8-5.37-3.03-9.26-6.7-11.64-3.67-2.41-9.96-2.94-18.91-1.61l-21.51 3.2 5.02 33.83zm123.27-.98c4.02-27.07 14.33-47.09 30.97-60.01 16.65-12.96 37.8-17.51 63.51-13.7 26.33 3.91 45.53 14.34 57.59 31.25 12.05 16.95 16.08 38.78 12.11 65.47-2.88 19.39-8.33 34.8-16.39 46.27-8.07 11.47-18.53 19.78-31.3 24.95-12.82 5.16-27.99 6.42-45.55 3.81-17.83-2.65-32.16-7.82-42.99-15.5-10.79-7.72-18.89-18.55-24.23-32.53-5.35-13.94-6.6-30.63-3.72-50.02zm48.82 7.37c-2.48 16.72-1.29 29.21 3.56 37.39 4.88 8.19 12.44 13.06 22.69 14.58 10.49 1.56 19.21-.82 26.01-7.11 6.85-6.32 11.63-18.72 14.39-37.3 2.32-15.6.99-27.44-3.95-35.52-4.97-8.12-12.58-12.92-22.89-14.45-9.87-1.47-18.37 1.02-25.43 7.44-7.09 6.41-11.87 18.09-14.38 34.97zm146.28-61.32 48.42 17.97-8.19 125.72 75.3-100.83 47.03 17.45-114.02 136.6-50.21-18.63 1.68-178.28zm193.68 85.73 109.68 73.94-20.03 29.72-68.55-46.21-14.93 22.15 63.55 42.84-19.12 28.36-63.55-42.84-18.47 27.39 70.59 47.59-21.21 31.47-111.71-75.31 93.76-139.08zm159.85 123.15 43.96 58.87c8.64 11.58 14 22.21 16.04 31.8 2.01 9.61 1.7 19.04-.97 28.33-2.72 9.28-7.36 18-14 26.21-6.62 8.24-14.5 15.76-23.66 22.6-14.36 10.72-26.66 17.49-36.92 20.26-10.23 2.8-20.09 3.43-29.59 1.87-9.49-1.55-17.49-4.83-24.03-9.85-8.92-6.86-16.02-13.83-21.28-20.87l-43.95-58.87 134.4-100.35zm-.86 62.27-73.4 54.8 7.26 9.73c6.19 8.3 11.57 13.48 16.11 15.57 4.54 2.04 9.94 2.29 16.22.71 6.31-1.6 14.8-6.41 25.56-14.44 14.24-10.63 22.32-20.1 24.26-28.47 1.94-8.37-.93-17.7-8.62-28l-7.4-9.91zM289.01 1308.63l-32.25-45.78-27.23 9.34-29.06-41.25 171.8-47.36 31.16 44.23-102.6 145.6-29.8-42.32 17.99-22.47zm23.66-29.46 39.23-48.99-59.38 20.37 20.15 28.62zm126.75-7.07 64.7 50.73c14.1 11.05 21.9 22.82 23.42 35.37 1.49 12.53-2.85 25.3-13.04 38.3-10.45 13.34-22.48 20.77-36.01 22.27-13.55 1.53-28.18-3.89-43.89-16.2l-21.33-16.73-38.31 48.85-39.03-30.61 103.49-131.99zm-5.19 87.01 9.58 7.52c7.56 5.93 13.95 8.7 19.14 8.36 5.19-.34 9.46-2.65 12.81-6.92 3.26-4.15 4.68-8.69 4.28-13.66-.37-4.96-4.22-10.31-11.55-16.05l-11.13-8.73-23.12 29.5zm126.3 4.85 74.8 34.13c16.3 7.44 26.64 17.05 31.07 28.89 4.38 11.83 3.16 25.26-3.69 40.29-7.04 15.42-16.98 25.47-29.78 30.1-12.81 4.66-28.3 2.83-46.47-5.46l-24.65-11.25-25.77 56.48-45.12-20.59 69.63-152.59zm15.37 85.8 11.08 5.05c8.74 3.99 15.6 5.19 20.57 3.63 4.97-1.55 8.57-4.8 10.83-9.74 2.19-4.79 2.51-9.53.95-14.28-1.52-4.73-6.52-9.03-14.99-12.9l-12.87-5.87-15.56 34.1zm93.66 137.74 28.53-165.29 81.16 14.01c15.04 2.6 26.34 5.93 33.79 10.03 7.5 4.07 13.05 10.22 16.67 18.37 3.61 8.19 4.49 17.57 2.67 28.12-1.58 9.15-4.82 16.76-9.71 22.77-4.86 6.05-10.93 10.55-18.22 13.58-4.6 1.9-10.7 3.11-18.23 3.59 5.45 3.04 9.32 5.77 11.61 8.26 1.53 1.65 3.63 5.03 6.28 10.04 2.61 5 4.3 8.82 5.01 11.45l15.43 51.83-55.04-9.5-17.32-54.89c-2.18-7.11-4.38-11.85-6.61-14.26-3.08-3.15-6.86-5.11-11.3-5.87l-4.3-.74-11.55 66.95-48.88-8.43zm65.81-89.68 20.58 3.55c2.21.38 6.66.36 13.31-.04 3.34-.1 6.28-1.37 8.78-3.83 2.54-2.45 4.12-5.47 4.74-9.09.93-5.35.02-9.74-2.71-13.15-2.73-3.44-8.54-5.91-17.46-7.45l-21.43-3.7-5.81 33.7zm115.2 33.74c-3.6-27.13.79-49.22 13.22-66.23 12.43-17.05 31.5-27.26 57.27-30.68 26.39-3.5 47.72 1.23 63.97 14.15 16.26 12.97 26.15 32.84 29.7 59.59 2.58 19.42 1.59 35.75-3 49s-12.35 24.13-23.21 32.62c-10.89 8.5-25.13 13.89-42.73 16.23-17.86 2.37-33.07 1.36-45.59-3.05-12.5-4.44-23.27-12.62-32.26-24.59-8.98-11.92-14.78-27.62-17.36-47.05zm48.96-6.38c2.22 16.75 6.82 28.44 13.73 34.96 6.95 6.52 15.56 9.12 25.82 7.76 10.52-1.39 18.24-6.08 23.05-14.01 4.83-7.97 6.01-21.2 3.54-39.82-2.07-15.64-6.62-26.65-13.59-33.05-7.02-6.43-15.65-8.95-25.99-7.57-9.89 1.31-17.38 6.04-22.39 14.16-5.05 8.11-6.42 20.66-4.18 37.58zm95.87-94.54 47.99-19.08 78.1 98.87-11.59-125.3 46.61-18.53 6.77 177.8-49.76 19.78-118.13-133.53zm159.9-66.22 104.55-81.02 21.95 28.33-65.34 50.64 16.36 21.11 60.58-46.94 20.95 27.03-60.58 46.94 20.23 26.11 67.29-52.14 23.24 30-106.49 82.52-102.74-132.58zm119.39-94.6 45.75-57.48c9-11.3 17.92-19.19 26.67-23.6 8.78-4.39 17.99-6.49 27.65-6.27 9.67.27 19.28 2.54 28.91 6.87 9.65 4.3 18.92 10.02 27.87 17.14 14.03 11.16 23.7 21.33 28.99 30.54 5.32 9.18 8.43 18.56 9.34 28.14.91 9.57-.22 18.14-3.42 25.74-4.37 10.37-9.3 19.01-14.77 25.89l-45.76 57.48-131.23-104.45zm60.44-15 71.67 57.04 7.56-9.5c6.45-8.1 10.09-14.62 10.97-19.54.81-4.92-.32-10.2-3.44-15.87-3.15-5.69-9.96-12.68-20.47-21.05-13.9-11.06-25.12-16.47-33.7-16.21-8.59.26-16.88 5.41-24.88 15.46l-7.7 9.67zM856.57 330.47c145.27 0 276.8 58.9 372.01 154.1a529.36 529.36 0 0 1 71.73 89.27h-45.05a491.46 491.46 0 0 0-53.1-62.85c-88.44-88.43-210.63-143.14-345.58-143.14-134.96 0-257.15 54.71-345.58 143.14a491.663 491.663 0 0 0-53.11 62.85h-45.05a528.961 528.961 0 0 1 71.73-89.27c95.2-95.2 226.74-154.1 372.01-154.1zm443.74 808.85a529.36 529.36 0 0 1-71.73 89.27c-95.21 95.21-226.74 154.1-372.01 154.1-145.27 0-276.8-58.89-372.01-154.1a529.36 529.36 0 0 1-71.73-89.27h45.05a490.074 490.074 0 0 0 53.11 62.84c88.43 88.44 210.62 143.14 345.58 143.14 134.96 0 257.14-54.7 345.58-143.14 19.4-19.4 37.17-40.42 53.1-62.84h45.05z" class="fil1"/><circle cx="189.37" cy="856.57" r="64.15" class="fil2 str0"/><circle cx="1510.07" cy="856.57" r="64.15" class="fil2 str0"/><path d="M294.12 1081.19V624.85h473.89l1.7.24c101.77 2.85 171.08 57.3 205.06 128.01 14.64 30.48 22.43 63.99 23.13 97.59.71 33.87-5.68 67.86-19.35 98.97-31.5 71.66-99.68 128.63-206.4 135.96l-4.14.24H594.89V821.18h52.95v211.73c38.75 0 82.89 2.12 120.79-.03 84.12-5.78 137.36-49.55 161.52-104.52 10.61-24.12 15.56-50.43 15.01-76.63-.54-26.15-6.59-52.2-17.96-75.87-26.01-54.12-79.64-95.8-158.93-98.02l-421.19-.04v403.39h-52.95zm372.42-260.01h52.95v140.08h47.49c51.69-4.45 83.72-29.98 97.68-61.74 6.45-14.67 9.46-30.6 9.13-46.4-.34-16.08-4.03-32.04-10.97-46.48-15.04-31.28-46.91-55.49-94.82-57.38v.18H418.71V872.7h-52.95V696.49l402.25-.02c71.21 2.08 119.23 39.22 142.4 87.42 10.21 21.26 15.64 44.68 16.13 68.21.49 23.48-3.95 47.08-13.48 68.74-21.53 48.98-69.35 88.03-145.21 93.39H666.53V821.19zm-247.82 70.21v189.8h-52.95v-189.8h52.95z" class="fil1"/><path d="m853.44 1055.1 257.69-430.39h111.79l214.43 356.6-57.55 102.88h-286.46v-52.95h312.45c-79.61-132.36-159.22-264.71-238.78-397.09L898.75 1082.2l8 4.78H768.02l85.43-31.88zm239.9-42.55v-52.96h186.02l-112.23-186.63-178.41 297.97-8.45 16.05h-62.68l249.44-416.61 205.77 342.18h-279.46zM365.76 819.75h199.83v124.6H365.76z" class="fil1"/></g></svg>