<svg xmlns="http://www.w3.org/2000/svg" xml:space="preserve" width="204.469" height="260.785" style="shape-rendering:geometricPrecision;text-rendering:geometricPrecision;image-rendering:optimizeQuality;fill-rule:evenodd;clip-rule:evenodd" viewBox="0 0 1646.04 2099.39"><defs><clipPath id="id0"><path d="M114.13 10.73h1417.79c56.87 0 103.39 46.52 103.39 103.39v1871.14c0 56.87-46.52 103.39-103.39 103.39H114.13c-56.87 0-103.39-46.52-103.39-103.39V114.12c0-56.87 46.52-103.39 103.39-103.39zm88.14 283.7V240.2h136.57c.12 1.75.24 3.74.3 5.84.06 2.11.06 5.18.06 9.34 0 44.46-11.59 78.93-34.77 103.45-23.12 24.52-55.74 36.81-97.76 36.81-20.62 0-39.04-3.13-55.09-9.46-16.1-6.27-30.43-15.91-43.08-28.86-12.06-12.35-21.46-26.93-28.17-43.87-6.66-16.87-9.99-34.52-9.99-53.02 0-19.28 3.27-37.05 9.75-53.2 6.47-16.21 16.22-30.73 29.06-43.68 12.78-12.59 27.46-22.11 43.98-28.62 16.58-6.45 34.41-9.7 53.55-9.7 24.96 0 47.07 5 66.27 15 19.2 10 35.36 24.88 48.49 44.64l-60.26 29.28c-7.19-10-15.33-17.41-24.31-22.29-9.03-4.88-19.08-7.35-30.25-7.35-20.8 0-37.21 7.05-49.15 21.09-11.95 14.1-17.95 33.26-17.95 57.66 0 24.58 6 43.92 17.95 58.02 11.94 14.16 28.35 21.21 49.15 21.21 17.65 0 32.39-4.4 44.15-13.14 11.83-8.74 18.72-20.36 20.68-34.94h-69.18zm179.3 95.08V131.03h69.54v198.11h86.29v60.37H381.57zm188.34-258.48h69.18v125.74c0 18.44.47 31.75 1.37 39.77.95 8.08 2.5 14.82 4.76 20.25 2.61 6.57 7.31 11.63 13.9 15.12 6.6 3.44 14.68 5.18 24.19 5.18 9.51 0 17.53-1.75 24.13-5.18 6.54-3.5 11.23-8.56 13.97-15.12 2.25-5.43 3.8-12.17 4.75-20.25.89-8.01 1.37-21.33 1.37-39.77V131.03h69.18v136.65c0 28.38-1.66 49.28-5.05 62.78-3.39 13.44-9.03 24.94-17.06 34.52-8.67 10.42-20.62 18.32-35.84 23.56-15.21 5.24-33.64 7.83-55.33 7.83-21.87 0-40.29-2.59-55.45-7.83-15.15-5.24-27.16-13.14-35.95-23.56-7.9-9.58-13.55-21.09-17-34.52-3.39-13.5-5.11-34.4-5.11-62.78V131.03zm316.23 258.48V192.13h-57.06v-61.1h183.64v61.1h-57.06v197.38h-69.53zm160.52 0V131.03h156.18v56.76h-88.43v44.83h83.38v55.31h-83.38v43.74h88.43v57.84h-156.18zm202.12 0V131.03h67.04l96.4 132.91c1.84 2.71 4.87 8.19 9.09 16.39 4.28 8.13 8.91 17.89 14.03 29.22-1.37-10.73-2.38-20.24-3.03-28.62-.65-8.37-.95-15.79-.95-22.23V131.03h66.68v258.48h-66.68l-96.34-133.46c-2.02-2.71-5.11-8.19-9.33-16.33-4.28-8.19-8.85-17.83-13.85-28.92 1.37 10.85 2.38 20.43 3.03 28.8.65 8.37.95 15.79.95 22.23V389.5h-67.04zm-840.8 365.02V496.05h158.34v56.76h-89.65v44.83h84.53v55.31h-84.53v101.58h-68.69zm196.66 0V496.05h73.75c28.8 0 48.92 1.33 60.25 3.98 11.33 2.65 21.15 7.11 29.4 13.31 9.28 7.05 16.45 16.09 21.45 26.99 5 10.97 7.47 23.01 7.47 36.21 0 20-4.94 36.27-14.76 48.8-9.88 12.53-24.22 20.85-43.08 24.94l70.49 104.23h-79.53l-59.29-101.22v101.22h-66.16zm66.16-136.29h13.01c15.18 0 26.27-2.59 33.26-7.77 6.99-5.18 10.48-13.32 10.48-24.34 0-12.95-3.26-22.17-9.76-27.65-6.57-5.48-17.47-8.19-32.9-8.19h-14.1v67.96zm165.63 136.29V496.05h158.34v56.76h-89.65v44.83h84.53v55.31h-84.53v43.74h89.65v57.84H836.43zm204.91 0V496.05h158.34v56.76h-89.65v44.83h84.53v55.31h-84.53v43.74h89.65v57.84h-158.34zm-228.18 60.62c161.48 0 292.38 130.91 292.38 292.38 0 161.48-130.91 292.38-292.38 292.38-161.48 0-292.38-130.91-292.38-292.38 0-161.48 130.91-292.38 292.38-292.38z"/></clipPath><style>.fil2{fill:none}.fil0,.fil1{fill:#4e2424}.fil0{fill-rule:nonzero}</style></defs><g id="Capa_x0020_1"><path d="M114.13 0h1417.79c31.39 0 59.93 12.84 80.61 33.52 20.68 20.67 33.52 49.21 33.52 80.61v1871.14c0 31.39-12.84 59.93-33.52 80.61-20.68 20.68-49.21 33.52-80.61 33.52H114.13c-31.39 0-59.93-12.84-80.61-33.52C12.84 2045.21 0 2016.67 0 1985.27V114.13C0 82.74 12.84 54.2 33.52 33.52 54.2 12.84 82.73 0 114.13 0zm1417.79 21.47H114.13c-25.47 0-48.64 10.43-65.43 27.23-16.8 16.79-27.23 39.96-27.23 65.43v1871.14c0 25.47 10.43 48.64 27.23 65.43 16.8 16.8 39.96 27.23 65.43 27.23h1417.79c25.47 0 48.64-10.43 65.43-27.23 16.8-16.79 27.23-39.96 27.23-65.43V114.13c0-25.47-10.43-48.64-27.23-65.43-16.8-16.8-39.96-27.23-65.43-27.23z" class="fil0"/><path d="M273.05 1717.23c0 2.6-.05 4.84-.22 6.65-.16 1.81-.44 3.4-.77 4.68-.28 1.33-.72 2.44-1.28 3.4-.55.9-1.39 1.97-2.61 3.14-1.17 1.17-3.5 2.71-6.88 4.57-3.44 1.81-7.6 3.61-12.53 5.32-4.94 1.65-10.54 3.08-16.86 4.2-6.33 1.12-13.2 1.7-20.58 1.7-14.36 0-27.34-2.13-38.94-6.38-11.59-4.25-21.47-10.63-29.56-19.09-8.15-8.45-14.37-18.98-18.69-31.69-4.33-12.66-6.49-27.39-6.49-44.19 0-17.12 2.39-32.33 7.16-45.62s11.43-24.46 19.97-33.5 18.8-15.85 30.79-20.53c11.92-4.68 25.13-7.02 39.55-7.02 5.82 0 11.43.48 16.86 1.44 5.44.9 10.43 2.13 15.03 3.67 4.61 1.49 8.71 3.24 12.43 5.21 3.66 2.02 6.27 3.72 7.71 5.1 1.45 1.44 2.44 2.61 3 3.51.56.96 1 2.13 1.27 3.56.33 1.49.61 3.19.78 5.16.16 1.97.22 4.36.22 7.28 0 3.09-.11 5.74-.33 7.92-.22 2.18-.61 3.93-1.11 5.26-.55 1.33-1.22 2.34-1.94 2.92-.77.64-1.66.96-2.6.96-1.61 0-3.66-.9-6.16-2.71-2.49-1.81-5.71-3.83-9.65-6.06-3.94-2.23-8.65-4.25-14.14-6.06-5.44-1.81-11.93-2.71-19.52-2.71-8.32 0-15.75 1.65-22.3 4.89-6.55 3.3-12.09 7.92-16.7 13.98-4.6 6.12-8.09 13.45-10.48 22.07-2.38 8.56-3.55 18.29-3.55 29.08 0 11.81 1.27 22.07 3.83 30.73 2.55 8.62 6.15 15.79 10.87 21.38 4.66 5.58 10.37 9.79 17.03 12.5 6.65 2.77 14.15 4.15 22.46 4.15 7.54 0 14.09-.85 19.63-2.55 5.49-1.7 10.2-3.61 14.14-5.63 3.99-2.08 7.21-3.94 9.76-5.58 2.55-1.65 4.49-2.5 5.94-2.5 1.05 0 1.94.21 2.55.64.67.43 1.22 1.22 1.66 2.5.39 1.22.72 2.98.94 5.21.22 2.29.33 5.26.33 9.04zm155.19 14.36c0 3.03-.11 5.53-.39 7.6-.28 2.02-.67 3.67-1.22 4.89-.55 1.27-1.22 2.18-2.05 2.76-.78.59-1.72.85-2.66.85h-105.5c-3.55 0-6.54-1.01-8.98-3.03-2.44-2.02-3.66-5.32-3.66-9.89v-175.79c0-4.57 1.22-7.87 3.66-9.89 2.44-2.02 5.43-3.03 8.98-3.03h105c.94 0 1.83.26 2.6.8.72.53 1.39 1.44 1.94 2.71.5 1.33.94 2.98 1.22 5 .28 2.08.39 4.62.39 7.76 0 2.92-.11 5.37-.39 7.44-.28 2.02-.67 3.67-1.22 4.89-.55 1.27-1.22 2.18-1.94 2.77-.78.58-1.66.85-2.6.85h-75.05v49.14h63.23c1 0 1.89.26 2.66.85.83.58 1.5 1.44 2.05 2.66.55 1.17.94 2.77 1.22 4.84.28 2.02.39 4.47.39 7.34 0 3.03-.11 5.53-.39 7.5-.28 1.97-.67 3.56-1.22 4.73-.55 1.22-1.22 2.07-2.05 2.55-.78.53-1.66.8-2.66.8h-63.23v56.79h75.55c.99 0 1.88.27 2.66.85.83.58 1.5 1.49 2.05 2.77.56 1.22.94 2.87 1.22 4.89.28 2.07.39 4.57.39 7.6zm193.96 10.85c0 1.12-.22 2.07-.67 2.87-.44.8-1.44 1.43-3.05 1.97-1.67.48-4 .85-7.16 1.06-3.16.21-7.43.32-12.81.32-4.55 0-8.15-.11-10.87-.32-2.72-.21-4.88-.59-6.44-1.17-1.55-.58-2.66-1.27-3.33-2.18-.61-.9-1.17-1.97-1.61-3.19l-18.97-45.14c-2.27-5.11-4.49-9.68-6.66-13.61-2.16-3.99-4.6-7.28-7.26-9.94-2.66-2.66-5.77-4.63-9.26-6.01-3.44-1.33-7.49-2.02-12.03-2.02h-13.37v77.05c0 1.01-.33 1.97-1.05 2.77-.72.85-1.89 1.54-3.5 2.07-1.61.48-3.77.9-6.49 1.22-2.66.32-6.16.48-10.31.48-4.11 0-7.54-.16-10.32-.48-2.77-.32-4.94-.74-6.54-1.22-1.61-.53-2.77-1.22-3.38-2.02-.67-.85-1-1.81-1-2.82V1559c0-4.57 1.22-7.87 3.66-9.89 2.44-2.02 5.43-3.03 8.98-3.03h54.47c5.49 0 10.09.11 13.64.32 3.55.21 6.82.48 9.76.74 8.43 1.17 16.03 3.14 22.79 5.96 6.77 2.76 12.54 6.43 17.25 10.95 4.72 4.52 8.32 9.84 10.81 16 2.5 6.17 3.72 13.24 3.72 21.27 0 6.7-.89 12.87-2.66 18.4-1.83 5.58-4.44 10.53-7.93 14.89-3.44 4.36-7.71 8.14-12.81 11.32-5.1 3.24-10.93 5.8-17.41 7.82a47.99 47.99 0 0 1 8.87 5.26c2.77 2.08 5.38 4.63 7.82 7.61 2.44 2.98 4.77 6.33 6.93 10.16 2.16 3.77 4.27 8.08 6.32 12.87l17.81 39.83c1.61 3.93 2.72 6.81 3.22 8.67.55 1.81.83 3.24.83 4.31zm-55.24-136.92c0-6.65-1.55-12.28-4.71-16.8-3.16-4.57-8.32-7.82-15.47-9.68-2.17-.53-4.61-.9-7.38-1.22-2.77-.32-6.6-.48-11.48-.48h-19.19v57.11h21.8c6.1 0 11.37-.69 15.92-2.13 4.6-1.38 8.38-3.35 11.43-5.9 3.05-2.5 5.33-5.58 6.82-9.09 1.5-3.51 2.27-7.45 2.27-11.81zm223.03-42.65c0 3.03-.11 5.58-.39 7.76-.28 2.13-.66 3.83-1.22 5.11-.55 1.33-1.22 2.29-2.05 2.87-.78.64-1.72.96-2.67.96h-52.58v162.55c0 1.01-.33 1.97-1.05 2.82-.72.8-1.89 1.49-3.49 2.02-1.61.48-3.83.9-6.6 1.22-2.77.32-6.21.48-10.32.48-4.1 0-7.54-.16-10.31-.48-2.77-.32-4.99-.74-6.6-1.22-1.61-.53-2.77-1.22-3.49-2.02-.72-.85-1.05-1.81-1.05-2.82v-162.55h-52.58c-1.06 0-2-.32-2.77-.96-.72-.58-1.39-1.54-1.94-2.87-.5-1.28-.94-2.98-1.22-5.11-.28-2.18-.39-4.73-.39-7.76 0-3.08.11-5.74.39-7.92.28-2.18.72-3.93 1.22-5.21.55-1.33 1.22-2.23 1.94-2.82.77-.58 1.72-.85 2.77-.85h148.09c.94 0 1.83.26 2.67.85.83.59 1.5 1.49 2.05 2.82.56 1.27.94 3.03 1.22 5.21s.39 4.84.39 7.92zm67.94 179.25c0 1.01-.33 1.97-1.05 2.82-.72.8-1.89 1.49-3.5 2.02-1.61.48-3.83.9-6.49 1.22-2.72.32-6.21.48-10.43.48-4.1 0-7.54-.16-10.32-.48-2.77-.32-4.99-.74-6.6-1.22-1.61-.53-2.77-1.22-3.5-2.02-.72-.85-1.05-1.81-1.05-2.82v-190.47c0-1.01.33-1.97 1.05-2.82.72-.8 1.89-1.49 3.61-2.02 1.67-.53 3.83-.9 6.54-1.22 2.72-.32 6.16-.48 10.26-.48 4.22 0 7.71.16 10.43.48 2.66.32 4.88.69 6.49 1.22 1.61.53 2.77 1.22 3.5 2.02.72.85 1.05 1.81 1.05 2.82v190.47zm163.96-179.25c0 3.14-.11 5.74-.39 7.87s-.72 3.83-1.33 5.1c-.61 1.22-1.28 2.18-2 2.77-.78.64-1.66.96-2.61.96h-68.89v54.24h64.62c1 0 1.89.26 2.61.8.78.48 1.44 1.38 2.05 2.6.61 1.28.99 2.92 1.27 5s.44 4.68.44 7.82c0 3.09-.17 5.69-.44 7.76-.28 2.07-.67 3.77-1.27 5.16-.61 1.33-1.28 2.29-2.05 2.87-.72.59-1.61.85-2.61.85h-64.62v75.13c0 1.12-.33 2.13-1 2.98-.61.8-1.77 1.49-3.49 2.07-1.66.59-3.88 1.01-6.54 1.33-2.72.32-6.21.48-10.43.48-4.1 0-7.54-.16-10.32-.48-2.77-.32-4.99-.74-6.6-1.33-1.61-.53-2.77-1.27-3.5-2.07-.72-.85-1.05-1.86-1.05-2.98v-182.81c0-4.57 1.22-7.87 3.66-9.89 2.44-2.02 5.43-3.03 9.04-3.03h99.12c.95 0 1.83.26 2.61.85.72.59 1.38 1.49 2 2.82.61 1.27 1.05 3.03 1.33 5.21s.39 4.84.39 7.92zm77.54 179.25c0 1.01-.33 1.97-1.05 2.82-.72.8-1.89 1.49-3.5 2.02-1.61.48-3.83.9-6.49 1.22-2.72.32-6.21.48-10.42.48-4.11 0-7.55-.16-10.32-.48-2.77-.32-4.99-.74-6.6-1.22-1.61-.53-2.77-1.22-3.5-2.02-.72-.85-1.05-1.81-1.05-2.82v-190.47c0-1.01.33-1.97 1.05-2.82.72-.8 1.89-1.49 3.61-2.02 1.67-.53 3.83-.9 6.54-1.22 2.72-.32 6.16-.48 10.27-.48 4.21 0 7.71.16 10.42.48 2.66.32 4.88.69 6.49 1.22 1.61.53 2.77 1.22 3.5 2.02.72.85 1.05 1.81 1.05 2.82v190.47zm170.28-10.53c0 3.03-.11 5.53-.39 7.6-.28 2.02-.67 3.67-1.22 4.89-.55 1.27-1.22 2.18-2.05 2.76-.78.59-1.72.85-2.66.85H1157.9c-3.55 0-6.54-1.01-8.98-3.03-2.44-2.02-3.66-5.32-3.66-9.89v-175.79c0-4.57 1.22-7.87 3.66-9.89 2.44-2.02 5.43-3.03 8.98-3.03h104.99c.94 0 1.83.26 2.61.8.72.53 1.39 1.44 1.94 2.71.5 1.33.94 2.98 1.22 5 .28 2.08.39 4.62.39 7.76 0 2.92-.11 5.37-.39 7.44-.28 2.02-.67 3.67-1.22 4.89-.55 1.27-1.22 2.18-1.94 2.77-.78.58-1.66.85-2.61.85h-75.05v49.14h63.23c1 0 1.89.26 2.66.85.83.58 1.5 1.44 2.05 2.66.55 1.17.94 2.77 1.22 4.84.27 2.02.39 4.47.39 7.34 0 3.03-.11 5.53-.39 7.5-.28 1.97-.67 3.56-1.22 4.73-.55 1.22-1.22 2.07-2.05 2.55-.78.53-1.66.8-2.66.8h-63.23v56.79h75.55c1 0 1.89.27 2.66.85.83.58 1.5 1.49 2.05 2.77.56 1.22.94 2.87 1.22 4.89.28 2.07.39 4.57.39 7.6zm212.6-87.69c0 18.51-2.5 34.3-7.55 47.49-5.04 13.13-12.26 23.82-21.68 32.17-9.43 8.29-20.91 14.41-34.39 18.29-13.48 3.88-29.56 5.85-48.2 5.85h-50.19c-3.61 0-6.6-1.01-9.04-3.03-2.44-2.02-3.66-5.32-3.66-9.89v-175.79c0-4.57 1.22-7.87 3.66-9.89 2.44-2.02 5.43-3.03 9.04-3.03h53.91c18.75 0 34.67 2.13 47.7 6.33 13.09 4.2 24.07 10.42 33 18.67 8.93 8.29 15.75 18.5 20.41 30.63 4.66 12.18 6.99 26.22 6.99 42.22zm-44.26 1.44c0-9.57-1.17-18.4-3.5-26.64-2.33-8.19-6.05-15.26-11.21-21.27-5.16-6.01-11.76-10.74-19.8-14.09-8.1-3.35-18.64-5.05-31.78-5.05h-21.58v136.87h22.24c11.7 0 21.58-1.43 29.56-4.36 7.99-2.87 14.7-7.28 20.08-13.13 5.32-5.85 9.32-13.14 11.98-21.86 2.66-8.72 3.99-18.88 3.99-30.47z" class="fil0"/><g id="_2796486177824"><path d="M155.3 1886.05c0 5.84-.67 11.08-2 15.75-1.3 4.67-3.25 8.65-5.83 11.92-2.56 3.29-5.72 5.82-9.45 7.55-3.73 1.76-8.01 2.63-12.83 2.63-2.24 0-4.31-.2-6.2-.64-1.89-.41-3.75-1.1-5.56-2.04a36.35 36.35 0 0 1-5.46-3.6c-1.81-1.45-3.73-3.19-5.75-5.23v8.27c0 .38-.11.74-.32 1.05-.21.3-.53.54-1.01.71-.48.18-1.06.31-1.75.41-.72.1-1.62.15-2.72.15-1.04 0-1.94-.05-2.66-.15-.75-.1-1.33-.23-1.81-.41-.45-.18-.77-.41-.93-.71-.16-.31-.24-.64-.24-1.05v-99.87c0-.41.08-.76.27-1.04.18-.31.53-.56 1.04-.77.48-.18 1.14-.33 2-.44.82-.1 1.86-.15 3.14-.15 1.3 0 2.37.05 3.19.15.85.1 1.49.26 1.97.44.48.2.8.46 1.01.77.21.28.32.64.32 1.04v40.23c2.08-2.04 4.07-3.78 6.04-5.18 1.94-1.38 3.83-2.53 5.7-3.4 1.89-.87 3.75-1.51 5.62-1.91 1.86-.38 3.83-.59 5.91-.59 5.08 0 9.43.97 13.05 2.91 3.59 1.94 6.52 4.57 8.78 7.81 2.26 3.27 3.91 7.1 4.95 11.49 1.04 4.39 1.55 9.04 1.55 13.91zm-13.42 1.43c0-3.45-.26-6.79-.82-10.03-.53-3.27-1.49-6.12-2.85-8.63-1.36-2.5-3.14-4.52-5.38-6.02-2.24-1.53-5.03-2.3-8.36-2.3-1.65 0-3.3.23-4.93.66-1.6.46-3.25 1.23-4.9 2.27-1.67 1.05-3.4 2.4-5.19 4.06-1.81 1.63-3.73 3.73-5.75 6.23v26.85c3.54 4.16 6.92 7.32 10.14 9.49 3.22 2.17 6.6 3.27 10.09 3.27 3.22 0 5.96-.74 8.25-2.25s4.15-3.5 5.59-5.97c1.44-2.45 2.47-5.23 3.11-8.29.67-3.09.99-6.2.99-9.34zm63.95 35.04-9.35 24.78c-.32.79-1.12 1.41-2.4 1.84-1.25.44-3.19.64-5.8.64-1.36 0-2.45-.05-3.27-.18-.82-.13-1.47-.36-1.92-.64-.43-.3-.67-.71-.72-1.2-.05-.51.08-1.1.37-1.81l9.69-23.43c-.48-.2-.93-.54-1.33-.97-.43-.46-.72-.92-.85-1.43l-25.05-64.32c-.43-1.04-.61-1.89-.61-2.47 0-.61.19-1.07.61-1.43.43-.36 1.09-.59 2.02-.72.93-.13 2.18-.18 3.75-.18 1.55 0 2.77.03 3.68.1.88.08 1.57.23 2.1.44.51.18.88.48 1.12.84.24.38.48.89.75 1.53l20.04 54.01h.24l19.33-54.29c.32-.97.69-1.58 1.14-1.84.43-.28 1.09-.48 1.97-.61.91-.13 2.18-.18 3.83-.18 1.46 0 2.66.05 3.6.18.93.13 1.62.36 2.05.72.45.36.67.82.67 1.43 0 .59-.16 1.35-.45 2.25l-25.21 66.95zm132.23-27.16c0 4.52-.88 8.55-2.61 12.1a26.782 26.782 0 0 1-7.27 9.01c-3.09 2.45-6.74 4.31-10.91 5.56-4.2 1.25-8.7 1.86-13.55 1.86-3.38 0-6.52-.28-9.4-.82-2.9-.56-5.48-1.25-7.75-2.04-2.26-.79-4.15-1.63-5.7-2.47-1.52-.87-2.61-1.58-3.2-2.2-.61-.59-1.04-1.35-1.33-2.27-.29-.92-.43-2.15-.43-3.68 0-1.1.05-2.02.16-2.73.1-.72.26-1.3.45-1.73.21-.46.48-.77.79-.95.32-.18.67-.25 1.09-.25.72 0 1.76.43 3.09 1.27 1.31.84 3.01 1.76 5.11 2.76 2.08.97 4.58 1.91 7.53 2.78 2.93.87 6.33 1.3 10.17 1.3 2.93 0 5.59-.38 8.01-1.12 2.42-.74 4.5-1.79 6.23-3.16 1.76-1.35 3.09-3.04 4.02-5.03.93-1.99 1.41-4.26 1.41-6.79 0-2.73-.64-5.08-1.94-7.02-1.31-1.94-3.01-3.65-5.14-5.13a49.135 49.135 0 0 0-7.3-4.03c-2.74-1.23-5.53-2.45-8.39-3.73a88.038 88.038 0 0 1-8.33-4.24c-2.71-1.53-5.14-3.34-7.27-5.43a24.557 24.557 0 0 1-5.16-7.38c-1.33-2.81-2-6.18-2-10.1 0-4.06.77-7.66 2.29-10.82 1.55-3.14 3.68-5.79 6.39-7.94 2.74-2.15 5.99-3.78 9.74-4.9 3.78-1.12 7.83-1.68 12.19-1.68 2.23 0 4.47.18 6.73.56 2.26.38 4.39.87 6.39 1.51 2 .61 3.78 1.33 5.35 2.09 1.55.77 2.58 1.41 3.06 1.87.51.48.82.84.99 1.12.16.28.26.64.37 1.05.1.43.18.94.24 1.55.05.59.08 1.35.08 2.32 0 .89-.02 1.68-.1 2.4-.08.69-.21 1.28-.38 1.76-.13.46-.37.82-.64 1.05-.29.23-.61.33-.99.33-.59 0-1.46-.36-2.69-1.05-1.22-.72-2.71-1.48-4.5-2.37-1.76-.87-3.86-1.66-6.29-2.37-2.39-.74-5.11-1.1-8.15-1.1-2.8 0-5.24.36-7.32 1.07-2.08.74-3.8 1.69-5.16 2.88-1.33 1.2-2.34 2.6-3.03 4.24-.67 1.66-1.01 3.39-1.01 5.23 0 2.68.64 5 1.94 6.94 1.3 1.94 3.04 3.65 5.19 5.15 2.18 1.51 4.63 2.86 7.4 4.11 2.74 1.25 5.56 2.5 8.44 3.78 2.85 1.27 5.67 2.65 8.42 4.18 2.77 1.51 5.22 3.32 7.4 5.39 2.16 2.07 3.89 4.49 5.22 7.33 1.33 2.81 2 6.12 2 9.98zm86.5 13.53c0 .79-.03 1.48-.08 2.09-.05.59-.13 1.1-.26 1.56-.13.44-.29.84-.51 1.2-.21.33-.58.77-1.09 1.25-.53.51-1.62 1.28-3.27 2.3-1.68 1.02-3.75 2.02-6.23 2.99-2.48.97-5.3 1.79-8.49 2.45-3.22.69-6.71 1.02-10.52 1.02-6.55 0-12.49-1.05-17.76-3.14-5.27-2.09-9.8-5.18-13.5-9.29-3.73-4.08-6.6-9.14-8.6-15.13-2-6.02-3.01-12.94-3.01-20.78 0-8.04 1.09-15.19 3.25-21.49 2.15-6.28 5.19-11.61 9.11-15.98 3.91-4.37 8.57-7.68 14.03-9.98 5.43-2.3 11.47-3.45 18.08-3.45 2.93 0 5.78.26 8.52.77 2.77.54 5.32 1.17 7.67 1.97 2.34.79 4.41 1.71 6.25 2.76 1.81 1.02 3.09 1.89 3.78 2.55.72.66 1.17 1.17 1.38 1.53.21.33.37.74.51 1.22.13.49.24 1.05.32 1.69.08.66.11 1.43.11 2.32 0 1.02-.05 1.87-.16 2.55-.1.72-.26 1.3-.48 1.79-.19.46-.45.82-.75 1.04-.26.23-.64.33-1.04.33-.74 0-1.76-.49-3.09-1.46-1.3-.97-2.98-2.04-5.05-3.22-2.08-1.17-4.58-2.25-7.54-3.22-2.98-.97-6.52-1.45-10.65-1.45-4.53 0-8.63.87-12.3 2.58-3.7 1.73-6.87 4.26-9.48 7.6-2.61 3.34-4.66 7.43-6.1 12.25-1.43 4.82-2.15 10.34-2.15 16.51 0 6.15.69 11.59 2.08 16.31 1.39 4.72 3.38 8.68 5.96 11.84s5.78 5.56 9.53 7.2c3.78 1.61 8.04 2.42 12.8 2.42 4.02 0 7.56-.48 10.57-1.43 3.01-.94 5.56-1.99 7.66-3.16 2.13-1.17 3.86-2.22 5.22-3.16 1.38-.94 2.45-1.43 3.22-1.43.37 0 .69.08.96.23.26.15.45.43.61.84.16.43.3 1.02.37 1.76.08.74.11 1.69.11 2.84zm72.07-13.53c0 4.52-.88 8.55-2.61 12.1a26.782 26.782 0 0 1-7.27 9.01c-3.09 2.45-6.73 4.31-10.91 5.56-4.2 1.25-8.7 1.86-13.55 1.86-3.38 0-6.52-.28-9.4-.82-2.9-.56-5.48-1.25-7.75-2.04-2.26-.79-4.15-1.63-5.7-2.47-1.52-.87-2.61-1.58-3.2-2.2-.61-.59-1.04-1.35-1.33-2.27-.29-.92-.43-2.15-.43-3.68 0-1.1.05-2.02.16-2.73.1-.72.26-1.3.45-1.73.21-.46.48-.77.8-.95.32-.18.67-.25 1.09-.25.72 0 1.76.43 3.09 1.27 1.31.84 3.01 1.76 5.11 2.76 2.08.97 4.58 1.91 7.53 2.78 2.93.87 6.33 1.3 10.17 1.3 2.93 0 5.59-.38 8.01-1.12 2.42-.74 4.5-1.79 6.23-3.16 1.76-1.35 3.09-3.04 4.02-5.03.93-1.99 1.41-4.26 1.41-6.79 0-2.73-.64-5.08-1.94-7.02-1.31-1.94-3.01-3.65-5.14-5.13a49.135 49.135 0 0 0-7.3-4.03c-2.74-1.23-5.53-2.45-8.39-3.73a88.038 88.038 0 0 1-8.33-4.24c-2.71-1.53-5.14-3.34-7.27-5.43a24.557 24.557 0 0 1-5.16-7.38c-1.33-2.81-2-6.18-2-10.1 0-4.06.77-7.66 2.29-10.82 1.55-3.14 3.68-5.79 6.39-7.94 2.74-2.15 5.99-3.78 9.74-4.9 3.78-1.12 7.83-1.68 12.19-1.68 2.23 0 4.47.18 6.73.56 2.26.38 4.39.87 6.39 1.51 2 .61 3.78 1.33 5.35 2.09 1.55.77 2.58 1.41 3.06 1.87.51.48.82.84.99 1.12.16.28.26.64.37 1.05.1.43.18.94.24 1.55.05.59.08 1.35.08 2.32 0 .89-.02 1.68-.1 2.4-.08.69-.21 1.28-.37 1.76-.13.46-.37.82-.64 1.05-.29.23-.61.33-.98.33-.59 0-1.47-.36-2.69-1.05-1.22-.72-2.71-1.48-4.5-2.37-1.76-.87-3.86-1.66-6.28-2.37-2.4-.74-5.11-1.1-8.15-1.1-2.8 0-5.24.36-7.32 1.07-2.08.74-3.81 1.69-5.17 2.88-1.33 1.2-2.34 2.6-3.03 4.24-.67 1.66-1.01 3.39-1.01 5.23 0 2.68.64 5 1.94 6.94 1.31 1.94 3.04 3.65 5.19 5.15 2.18 1.51 4.63 2.86 7.4 4.11 2.74 1.25 5.56 2.5 8.44 3.78 2.85 1.27 5.67 2.65 8.42 4.18 2.77 1.51 5.22 3.32 7.4 5.39 2.16 2.07 3.89 4.49 5.22 7.33 1.33 2.81 2 6.12 2 9.98zm130.91-56.41c0 .94-.05 1.79-.16 2.5-.1.72-.26 1.33-.45 1.81-.21.46-.48.79-.8.99-.29.2-.64.31-1.01.31-.61 0-1.65-.49-3.12-1.43-1.46-.95-3.41-2.02-5.86-3.16-2.45-1.15-5.38-2.22-8.78-3.17-3.41-.94-7.46-1.43-12.12-1.43-5.59 0-10.57.97-14.98 2.91-4.42 1.97-8.18 4.65-11.24 8.09-3.09 3.45-5.43 7.53-7.08 12.28-1.62 4.75-2.45 9.88-2.45 15.42 0 6.2.9 11.69 2.69 16.49 1.81 4.77 4.28 8.83 7.48 12.12 3.17 3.29 6.95 5.79 11.37 7.48 4.39 1.71 9.24 2.55 14.48 2.55 3.14 0 6.31-.36 9.51-1.1 3.19-.72 6.18-1.81 8.95-3.24v-28.28h-23.38c-.9 0-1.57-.43-2-1.27-.45-.84-.66-2.17-.66-3.98 0-.94.05-1.76.16-2.42.1-.66.27-1.22.51-1.66.24-.41.51-.72.82-.92.3-.2.69-.31 1.17-.31h32.03c.58 0 1.14.1 1.73.31.56.2 1.09.49 1.55.89.48.41.85.94 1.09 1.63.26.71.4 1.51.4 2.4v36.93c0 1.3-.24 2.42-.69 3.37-.48.94-1.46 1.79-2.98 2.5-1.49.72-3.46 1.51-5.86 2.35-2.4.87-4.84 1.58-7.4 2.2a66.28 66.28 0 0 1-7.72 1.33c-2.61.31-5.19.46-7.72.46-7.83 0-14.8-1.15-20.92-3.47-6.15-2.32-11.34-5.64-15.58-9.93-4.23-4.29-7.48-9.42-9.72-15.42s-3.35-12.66-3.35-20.06c0-7.68 1.2-14.65 3.62-20.88 2.42-6.23 5.83-11.53 10.23-15.95 4.39-4.39 9.66-7.78 15.81-10.21 6.18-2.42 13-3.62 20.47-3.62 3.86 0 7.46.33 10.84.97 3.38.66 6.39 1.43 9.02 2.3 2.61.89 4.82 1.84 6.63 2.88 1.78 1.02 3.01 1.87 3.7 2.53.66.64 1.14 1.4 1.38 2.25.27.84.4 2.07.4 3.68zm36.55 81.7c0 .41-.11.74-.32 1.02-.21.26-.54.51-1.01.72-.48.18-1.12.33-1.97.44-.82.1-1.89.15-3.19.15-1.28 0-2.32-.05-3.14-.15-.85-.1-1.52-.26-2-.44-.51-.2-.85-.46-1.04-.72-.19-.28-.27-.61-.27-1.02v-99.87c0-.41.08-.76.27-1.04.18-.31.53-.56 1.04-.77.48-.18 1.15-.33 2-.44.82-.1 1.86-.15 3.14-.15 1.3 0 2.37.05 3.19.15.85.1 1.49.26 1.97.44.48.2.8.46 1.01.77.21.28.32.64.32 1.04v99.87zm88.89-34.46c0 5.49-.75 10.54-2.26 15.16-1.49 4.59-3.75 8.57-6.73 11.92-2.98 3.34-6.74 5.95-11.21 7.81-4.5 1.87-9.72 2.81-15.63 2.81-5.77 0-10.81-.82-15.09-2.48-4.29-1.63-7.85-4.03-10.7-7.17-2.85-3.14-4.97-6.97-6.39-11.43-1.41-4.49-2.1-9.57-2.1-15.26 0-5.49.74-10.54 2.21-15.14 1.49-4.62 3.72-8.6 6.71-11.94 2.98-3.34 6.71-5.92 11.18-7.79 4.47-1.84 9.69-2.76 15.65-2.76 5.78 0 10.81.82 15.1 2.48 4.28 1.63 7.85 4.03 10.7 7.17 2.84 3.14 5.01 6.94 6.44 11.43 1.41 4.49 2.13 9.54 2.13 15.19zm-13.42.79c0-3.65-.35-7.1-1.06-10.34-.69-3.24-1.87-6.08-3.49-8.53-1.6-2.45-3.81-4.39-6.58-5.79-2.74-1.43-6.21-2.15-10.33-2.15-3.81 0-7.08.64-9.82 1.94-2.74 1.3-4.98 3.14-6.76 5.51-1.78 2.37-3.09 5.18-3.94 8.42-.88 3.24-1.31 6.79-1.31 10.62 0 3.7.35 7.17 1.06 10.41.69 3.24 1.87 6.08 3.51 8.5 1.65 2.4 3.86 4.34 6.61 5.74 2.77 1.43 6.23 2.14 10.35 2.14 3.75 0 7-.64 9.77-1.94 2.77-1.3 5.03-3.11 6.82-5.46 1.78-2.35 3.09-5.16 3.91-8.4.82-3.24 1.25-6.82 1.25-10.69zm97.01-.94c0 5.84-.67 11.08-2 15.75-1.31 4.67-3.25 8.65-5.83 11.92-2.56 3.29-5.72 5.82-9.45 7.55-3.72 1.76-8.01 2.63-12.83 2.63-2.23 0-4.31-.2-6.2-.64-1.89-.41-3.75-1.1-5.57-2.04a36.35 36.35 0 0 1-5.46-3.6c-1.81-1.45-3.73-3.19-5.75-5.23v8.27c0 .38-.11.74-.32 1.05-.21.3-.53.54-1.01.71-.48.18-1.06.31-1.76.41-.72.1-1.62.15-2.72.15-1.04 0-1.94-.05-2.66-.15-.75-.1-1.33-.23-1.81-.41-.45-.18-.77-.41-.93-.71-.16-.31-.24-.64-.24-1.05v-99.87c0-.41.08-.76.26-1.04.19-.31.53-.56 1.04-.77.48-.18 1.14-.33 2-.44.82-.1 1.86-.15 3.14-.15 1.31 0 2.37.05 3.19.15.85.1 1.49.26 1.97.44.48.2.8.46 1.01.77.21.28.32.64.32 1.04v40.23c2.08-2.04 4.07-3.78 6.05-5.18 1.94-1.38 3.83-2.53 5.7-3.4 1.89-.87 3.75-1.51 5.62-1.91 1.86-.38 3.83-.59 5.91-.59 5.08 0 9.43.97 13.05 2.91 3.59 1.94 6.52 4.57 8.78 7.81 2.26 3.27 3.91 7.1 4.95 11.49 1.04 4.39 1.55 9.04 1.55 13.91zm-13.42 1.43c0-3.45-.27-6.79-.82-10.03-.54-3.27-1.49-6.12-2.85-8.63-1.36-2.5-3.14-4.52-5.38-6.02-2.24-1.53-5.03-2.3-8.36-2.3-1.65 0-3.3.23-4.92.66-1.6.46-3.25 1.23-4.9 2.27-1.68 1.05-3.4 2.4-5.19 4.06-1.81 1.63-3.73 3.73-5.75 6.23v26.85c3.54 4.16 6.92 7.32 10.14 9.49 3.22 2.17 6.6 3.27 10.09 3.27 3.22 0 5.96-.74 8.25-2.25s4.16-3.5 5.59-5.97c1.44-2.45 2.48-5.23 3.11-8.29.67-3.09.99-6.2.99-9.34zm85.67 33.26c0 .59-.21 1.05-.61 1.35-.43.31-.99.51-1.73.66-.72.16-1.78.23-3.19.23-1.33 0-2.42-.08-3.22-.23-.8-.15-1.39-.36-1.76-.66-.37-.3-.56-.74-.56-1.35v-6.74c-3.06 3.14-6.47 5.59-10.25 7.33a28.737 28.737 0 0 1-11.98 2.58c-3.7 0-7.06-.46-10.03-1.38-2.98-.92-5.54-2.27-7.64-4.01-2.1-1.73-3.75-3.9-4.92-6.43-1.17-2.55-1.76-5.44-1.76-8.68 0-3.8.8-7.1 2.42-9.88 1.6-2.81 3.91-5.13 6.95-6.97 3.01-1.84 6.71-3.24 11.08-4.16 4.37-.92 9.29-1.38 14.75-1.38h9.69v-5.26c0-2.58-.29-4.87-.85-6.89-.58-1.99-1.49-3.65-2.77-4.97-1.28-1.33-2.93-2.32-4.95-2.99-2.02-.69-4.52-1.02-7.48-1.02-3.17 0-6.02.36-8.52 1.1-2.53.74-4.74 1.53-6.63 2.42-1.89.89-3.49 1.69-4.77 2.42-1.25.74-2.21 1.1-2.82 1.1-.43 0-.8-.1-1.09-.31-.32-.18-.59-.48-.82-.89-.24-.38-.4-.89-.51-1.51-.11-.64-.16-1.3-.16-2.07 0-1.22.08-2.22.27-2.93.19-.72.64-1.41 1.33-2.04.69-.64 1.92-1.4 3.62-2.3 1.7-.87 3.7-1.68 5.94-2.42 2.21-.72 4.66-1.33 7.32-1.81 2.63-.48 5.32-.72 8.01-.72 5.03 0 9.32.54 12.86 1.63 3.54 1.1 6.39 2.73 8.57 4.85 2.18 2.12 3.75 4.75 4.74 7.89.98 3.14 1.49 6.82 1.49 11v45.43zm-12.78-30.83h-11c-3.51 0-6.58.28-9.18.87-2.58.56-4.74 1.43-6.47 2.55-1.7 1.12-2.95 2.45-3.78 4.03-.8 1.58-1.2 3.4-1.2 5.44 0 3.5 1.15 6.28 3.46 8.35 2.32 2.07 5.54 3.11 9.72 3.11 3.36 0 6.49-.82 9.37-2.48 2.88-1.63 5.91-4.16 9.08-7.55v-14.32zm49.36 30.76c0 .41-.11.74-.32 1.02-.21.26-.54.51-1.01.72-.48.18-1.12.33-1.97.44-.82.1-1.89.15-3.19.15-1.28 0-2.32-.05-3.14-.15-.85-.1-1.52-.26-2-.44-.51-.2-.85-.46-1.04-.72-.19-.28-.27-.61-.27-1.02v-99.87c0-.41.08-.76.27-1.04.18-.31.53-.56 1.04-.77.48-.18 1.14-.33 2-.44.82-.1 1.86-.15 3.14-.15 1.3 0 2.37.05 3.19.15.85.1 1.49.26 1.97.44.48.2.8.46 1.01.77.21.28.32.64.32 1.04v99.87zM1060.99 1895.37c0 4.52-.88 8.55-2.61 12.1a26.782 26.782 0 0 1-7.27 9.01c-3.09 2.45-6.73 4.31-10.91 5.56-4.2 1.25-8.7 1.86-13.55 1.86-3.38 0-6.52-.28-9.4-.82-2.9-.56-5.48-1.25-7.75-2.04-2.26-.79-4.15-1.63-5.7-2.47-1.52-.87-2.61-1.58-3.2-2.2-.61-.59-1.04-1.35-1.33-2.27-.29-.92-.43-2.15-.43-3.68 0-1.1.05-2.02.16-2.73.1-.72.26-1.3.45-1.73.21-.46.48-.77.8-.95.32-.18.67-.25 1.09-.25.72 0 1.76.43 3.09 1.27 1.31.84 3.01 1.76 5.11 2.76 2.08.97 4.58 1.91 7.53 2.78 2.93.87 6.33 1.3 10.17 1.3 2.93 0 5.59-.38 8.01-1.12 2.42-.74 4.5-1.79 6.23-3.16 1.76-1.35 3.09-3.04 4.02-5.03.93-1.99 1.41-4.26 1.41-6.79 0-2.73-.64-5.08-1.94-7.02-1.31-1.94-3.01-3.65-5.14-5.13a49.135 49.135 0 0 0-7.3-4.03c-2.74-1.23-5.53-2.45-8.39-3.73a88.038 88.038 0 0 1-8.33-4.24c-2.71-1.53-5.14-3.34-7.27-5.43a24.557 24.557 0 0 1-5.16-7.38c-1.33-2.81-2-6.18-2-10.1 0-4.06.77-7.66 2.29-10.82 1.55-3.14 3.68-5.79 6.39-7.94 2.74-2.15 5.99-3.78 9.74-4.9 3.78-1.12 7.83-1.68 12.19-1.68 2.23 0 4.47.18 6.73.56 2.26.38 4.39.87 6.39 1.51 2 .61 3.78 1.33 5.35 2.09 1.55.77 2.58 1.41 3.06 1.87.51.48.83.84.99 1.12.16.28.26.64.37 1.05.1.43.18.94.24 1.55.05.59.08 1.35.08 2.32 0 .89-.02 1.68-.1 2.4-.08.69-.21 1.28-.37 1.76-.13.46-.37.82-.64 1.05-.29.23-.61.33-.98.33-.59 0-1.47-.36-2.69-1.05-1.22-.72-2.71-1.48-4.5-2.37-1.76-.87-3.86-1.66-6.28-2.37-2.4-.74-5.11-1.1-8.15-1.1-2.8 0-5.24.36-7.32 1.07-2.08.74-3.81 1.69-5.17 2.88-1.33 1.2-2.34 2.6-3.03 4.24-.67 1.66-1.01 3.39-1.01 5.23 0 2.68.64 5 1.94 6.94 1.31 1.94 3.04 3.65 5.19 5.15 2.18 1.51 4.63 2.86 7.4 4.11 2.74 1.25 5.56 2.5 8.44 3.78 2.85 1.27 5.67 2.65 8.42 4.18 2.77 1.51 5.22 3.32 7.4 5.39 2.16 2.07 3.89 4.49 5.22 7.33 1.33 2.81 2 6.12 2 9.98zm77.4-11.31c0 1.94-.51 3.32-1.52 4.16a5.384 5.384 0 0 1-3.48 1.23h-46.11c0 3.75.4 7.12 1.17 10.1.77 3.01 2.08 5.59 3.91 7.73 1.81 2.15 4.18 3.78 7.08 4.93 2.93 1.15 6.5 1.73 10.7 1.73 3.33 0 6.31-.25 8.89-.79 2.61-.51 4.87-1.1 6.76-1.73 1.89-.64 3.46-1.23 4.69-1.73 1.22-.54 2.13-.79 2.77-.79.37 0 .69.08.99.25.26.18.5.44.64.79.16.33.3.82.37 1.43.08.64.11 1.38.11 2.27 0 .64-.03 1.2-.08 1.68-.05.46-.11.89-.19 1.25-.08.38-.21.72-.4 1.02-.19.28-.4.56-.69.84-.3.28-1.14.72-2.53 1.33-1.41.64-3.22 1.23-5.46 1.84-2.24.59-4.82 1.12-7.75 1.58-2.93.48-6.04.72-9.37.72-5.77 0-10.81-.77-15.15-2.32-4.34-1.53-7.99-3.83-10.94-6.87-2.95-3.06-5.19-6.86-6.68-11.46-1.52-4.57-2.26-9.9-2.26-16 0-5.77.77-10.97 2.34-15.59 1.55-4.59 3.81-8.53 6.73-11.74 2.93-3.22 6.5-5.67 10.65-7.4 4.15-1.71 8.81-2.58 13.95-2.58 5.51 0 10.2.84 14.06 2.55 3.89 1.69 7.06 3.98 9.56 6.84 2.47 2.86 4.31 6.23 5.48 10.11 1.17 3.86 1.76 7.99 1.76 12.38v2.25zm-12.94-3.65c.16-6.48-1.33-11.59-4.5-15.29-3.17-3.7-7.83-5.54-14.03-5.54-3.19 0-5.99.56-8.39 1.71-2.4 1.15-4.39 2.68-6.02 4.59-1.62 1.89-2.88 4.11-3.75 6.61-.88 2.53-1.38 5.15-1.49 7.91h38.18zm73.72-22.72c0 1.1-.02 2.02-.08 2.76-.05.74-.16 1.33-.32 1.76-.13.44-.35.74-.58.97-.22.23-.53.33-.96.33-.43 0-.93-.1-1.52-.33-.61-.23-1.27-.46-2.02-.66-.75-.23-1.6-.44-2.53-.64-.93-.2-1.94-.31-3.04-.31-1.3 0-2.58.26-3.83.74-1.22.51-2.56 1.33-3.91 2.5-1.39 1.15-2.82 2.68-4.34 4.57-1.49 1.91-3.17 4.24-4.97 7v44.28c0 .41-.11.74-.32 1.02-.21.26-.53.51-1.01.72-.48.18-1.12.33-1.97.44-.82.1-1.89.15-3.19.15-1.28 0-2.32-.05-3.14-.15-.85-.1-1.52-.26-2-.44-.51-.2-.85-.46-1.04-.72-.19-.28-.27-.61-.27-1.02v-67.33c0-.41.08-.74.24-1.02.16-.26.45-.51.93-.74.48-.23 1.06-.38 1.81-.46.72-.08 1.71-.1 2.91-.1 1.14 0 2.1.03 2.84.1.78.08 1.36.23 1.79.46.4.23.72.48.9.74.16.28.27.61.27 1.02v9.8c1.92-2.7 3.73-4.9 5.4-6.61 1.7-1.68 3.3-3.04 4.79-4.01 1.52-.97 3.01-1.63 4.47-2.01 1.49-.38 2.98-.56 4.5-.56.67 0 1.44.02 2.29.1.85.08 1.76.23 2.69.41.93.2 1.79.43 2.53.69.75.26 1.27.49 1.6.74.32.26.53.48.61.72.1.23.21.51.29.84.08.36.13.87.16 1.53.02.69.02 1.58.02 2.73zm73.61-4.52c0 .21 0 .41-.02.64-.03.23-.09.46-.11.72-.05.26-.13.51-.21.82-.08.31-.16.61-.26.97l-23.93 63.96c-.21.56-.51 1.02-.83 1.35-.34.36-.85.64-1.52.82-.7.2-1.55.36-2.58.43-1.04.08-2.34.1-3.91.1-1.55 0-2.85-.05-3.89-.15-1.04-.1-1.89-.26-2.53-.44-.67-.2-1.17-.48-1.52-.84-.37-.33-.67-.76-.88-1.27l-23.85-63.96c-.21-.59-.37-1.12-.51-1.55-.13-.46-.21-.79-.24-1.02-.02-.23-.02-.41-.02-.56 0-.41.1-.74.29-1.04.21-.31.56-.54 1.07-.72.48-.18 1.14-.28 1.94-.33.8-.05 1.81-.08 3.01-.08 1.52 0 2.72.03 3.62.1.91.08 1.62.23 2.1.44.51.18.88.43 1.09.74.24.31.45.66.67 1.12l19.81 55.51.32.89.24-.89 19.57-55.51c.1-.46.29-.82.56-1.12.24-.31.64-.56 1.12-.74.51-.21 1.17-.36 2.02-.44.88-.08 2-.1 3.41-.1 1.2 0 2.18.03 2.95.08s1.38.18 1.84.38c.45.18.74.44.93.69.19.28.27.61.27 1.02zm27.58 67.49c0 .41-.11.74-.32 1.02-.21.26-.53.51-1.01.72-.48.18-1.12.33-1.97.44-.83.1-1.89.15-3.19.15-1.28 0-2.32-.05-3.14-.15-.85-.1-1.52-.26-2-.44-.51-.2-.85-.46-1.04-.72-.19-.28-.26-.61-.26-1.02v-67.33c0-.36.08-.69.26-.97.19-.31.53-.56 1.04-.77.48-.18 1.15-.33 2-.43.82-.1 1.86-.16 3.14-.16 1.31 0 2.37.05 3.19.16.85.1 1.49.26 1.97.43.48.2.8.46 1.01.77.21.28.32.61.32.97v67.33zm1.44-90.02c0 2.91-.59 4.88-1.73 5.92-1.14 1.04-3.25 1.58-6.33 1.58-3.03 0-5.11-.51-6.23-1.53s-1.68-2.96-1.68-5.82c0-2.91.58-4.87 1.73-5.92 1.14-1.05 3.25-1.58 6.33-1.58 3.04 0 5.11.51 6.23 1.53s1.68 2.96 1.68 5.82zm72.76 79.66c0 .84-.02 1.58-.08 2.19-.05.64-.13 1.15-.27 1.58-.13.44-.29.79-.48 1.13-.19.33-.58.82-1.25 1.43-.64.64-1.76 1.41-3.3 2.35-1.57.92-3.33 1.76-5.27 2.48-1.97.74-4.07 1.33-6.36 1.76-2.29.46-4.66.69-7.11.69-5.05 0-9.53-.79-13.41-2.4-3.91-1.58-7.19-3.9-9.8-6.97-2.64-3.06-4.63-6.84-6.02-11.28-1.38-4.47-2.08-9.6-2.08-15.44 0-6.61.85-12.3 2.53-17.08 1.7-4.75 4.02-8.65 6.95-11.69a27.67 27.67 0 0 1 10.38-6.76c3.99-1.45 8.31-2.2 12.94-2.2 2.24 0 4.39.21 6.5.61 2.13.38 4.05.92 5.83 1.55 1.76.67 3.36 1.41 4.71 2.27 1.38.84 2.4 1.58 3.01 2.17.64.61 1.06 1.1 1.31 1.43.21.36.42.76.58 1.25.13.46.24.99.3 1.61.05.59.08 1.35.08 2.25 0 1.94-.24 3.29-.69 4.08-.48.76-1.04 1.15-1.73 1.15-.77 0-1.68-.41-2.69-1.25-1.01-.82-2.29-1.73-3.86-2.73-1.57-1-3.46-1.92-5.67-2.73-2.21-.84-4.82-1.25-7.83-1.25-6.2 0-10.97 2.27-14.27 6.84-3.3 4.54-4.96 11.15-4.96 19.81 0 4.31.43 8.11 1.28 11.38.88 3.24 2.13 5.97 3.81 8.17 1.65 2.17 3.7 3.8 6.12 4.87 2.42 1.07 5.19 1.61 8.3 1.61 2.98 0 5.59-.46 7.83-1.35 2.24-.89 4.15-1.89 5.81-2.98 1.65-1.07 3.03-2.04 4.15-2.91 1.12-.89 1.97-1.33 2.61-1.33.35 0 .66.1.93.31.27.2.48.54.67.99.19.48.32 1.07.4 1.81.08.72.11 1.58.11 2.58zm76.81-26.24c0 1.94-.51 3.32-1.52 4.16a5.384 5.384 0 0 1-3.48 1.23h-46.11c0 3.75.4 7.12 1.17 10.1.77 3.01 2.08 5.59 3.91 7.73 1.81 2.15 4.18 3.78 7.08 4.93 2.93 1.15 6.5 1.73 10.7 1.73 3.33 0 6.31-.25 8.89-.79 2.61-.51 4.87-1.1 6.76-1.73 1.89-.64 3.46-1.23 4.68-1.73 1.23-.54 2.13-.79 2.77-.79.37 0 .69.08.98.25.27.18.51.44.64.79.16.33.3.82.37 1.43.08.64.11 1.38.11 2.27 0 .64-.03 1.2-.08 1.68-.05.46-.11.89-.19 1.25-.08.38-.21.72-.4 1.02-.19.28-.4.56-.69.84-.3.28-1.14.72-2.53 1.33-1.41.64-3.22 1.23-5.46 1.84-2.24.59-4.82 1.12-7.75 1.58-2.93.48-6.05.72-9.37.72-5.77 0-10.81-.77-15.15-2.32-4.34-1.53-7.99-3.83-10.94-6.87-2.95-3.06-5.19-6.86-6.68-11.46-1.52-4.57-2.26-9.9-2.26-16 0-5.77.77-10.97 2.34-15.59 1.55-4.59 3.81-8.53 6.74-11.74 2.93-3.22 6.5-5.67 10.65-7.4 4.15-1.71 8.81-2.58 13.95-2.58 5.51 0 10.2.84 14.06 2.55 3.89 1.69 7.05 3.98 9.56 6.84 2.48 2.86 4.31 6.23 5.49 10.11 1.17 3.86 1.76 7.99 1.76 12.38v2.25zm-12.94-3.65c.16-6.48-1.33-11.59-4.5-15.29-3.17-3.7-7.83-5.54-14.03-5.54-3.19 0-5.99.56-8.39 1.71-2.4 1.15-4.39 2.68-6.02 4.59-1.62 1.89-2.88 4.11-3.75 6.61-.88 2.53-1.38 5.15-1.49 7.91h38.18zm76.75 21.87c0 3.44-.67 6.51-2 9.21a18.835 18.835 0 0 1-5.64 6.79c-2.45 1.83-5.35 3.24-8.74 4.18-3.38.95-7.1 1.43-11.15 1.43-2.5 0-4.87-.18-7.13-.56-2.26-.36-4.29-.82-6.1-1.4-1.78-.56-3.3-1.15-4.55-1.76-1.25-.61-2.16-1.17-2.72-1.66-.58-.48-1.01-1.2-1.25-2.09-.26-.89-.4-2.12-.4-3.68 0-.94.05-1.73.16-2.37.1-.66.24-1.17.37-1.58.16-.41.4-.69.67-.87.29-.18.61-.26.98-.26.56 0 1.41.33 2.53 1.02 1.12.67 2.5 1.41 4.13 2.2 1.62.79 3.57 1.53 5.81 2.19 2.24.69 4.79 1.02 7.69 1.02 2.18 0 4.15-.23 5.91-.69 1.79-.43 3.3-1.1 4.61-1.99 1.31-.87 2.29-1.99 3.01-3.34.69-1.35 1.04-2.96 1.04-4.82 0-1.89-.51-3.5-1.52-4.77-1.01-1.3-2.35-2.45-3.99-3.44-1.68-1-3.54-1.89-5.62-2.66-2.08-.76-4.2-1.58-6.41-2.42-2.18-.87-4.34-1.81-6.44-2.88a24.71 24.71 0 0 1-5.65-3.93c-1.65-1.56-2.98-3.4-3.99-5.54-1.01-2.14-1.52-4.69-1.52-7.71 0-2.63.53-5.16 1.59-7.58 1.07-2.42 2.66-4.55 4.79-6.36 2.16-1.81 4.82-3.29 8.01-4.39 3.2-1.1 6.92-1.63 11.21-1.63 1.87 0 3.73.15 5.62.46 1.86.31 3.54.72 5.05 1.17 1.52.46 2.8.97 3.86 1.51 1.06.56 1.89 1.02 2.42 1.45.56.41.9.77 1.09 1.05.19.31.32.64.4 1.02.08.36.16.82.24 1.35.08.56.11 1.23.11 2.02 0 .84-.03 1.58-.11 2.19-.08.61-.21 1.12-.4 1.51-.19.41-.4.69-.67.87-.27.18-.56.26-.85.26-.48 0-1.14-.28-2.05-.84-.88-.54-2.02-1.12-3.43-1.76-1.41-.64-3.06-1.23-4.95-1.76-1.89-.56-4.07-.84-6.52-.84-2.18 0-4.13.23-5.78.72-1.68.46-3.04 1.12-4.1 1.99-1.07.87-1.89 1.89-2.42 3.09-.56 1.17-.82 2.48-.82 3.86 0 1.94.53 3.57 1.57 4.9 1.04 1.33 2.37 2.48 4.05 3.47 1.65.99 3.57 1.89 5.7 2.7 2.13.79 4.29 1.61 6.5 2.45 2.22.87 4.39 1.81 6.55 2.86 2.16 1.05 4.07 2.32 5.72 3.8 1.68 1.51 3.01 3.29 4.02 5.39 1.01 2.09 1.52 4.59 1.52 7.48z" class="fil0"/></g><path d="M-45.01-129.25h1749.03v1147.83c-567.92 141.74-1149.41 156.01-1749.03 0V-129.25z" class="fil1" style="clip-path:url(#id0)"/><path d="M114.13 10.73h1417.79c56.87 0 103.39 46.52 103.39 103.39v1871.14c0 56.87-46.52 103.39-103.39 103.39H114.13c-56.87 0-103.39-46.52-103.39-103.39V114.12c0-56.87 46.52-103.39 103.39-103.39zm88.14 283.7V240.2h136.57c.12 1.75.24 3.74.3 5.84.06 2.11.06 5.18.06 9.34 0 44.46-11.59 78.93-34.77 103.45-23.12 24.52-55.74 36.81-97.76 36.81-20.62 0-39.04-3.13-55.09-9.46-16.1-6.27-30.43-15.91-43.08-28.86-12.06-12.35-21.46-26.93-28.17-43.87-6.66-16.87-9.99-34.52-9.99-53.02 0-19.28 3.27-37.05 9.75-53.2 6.47-16.21 16.22-30.73 29.06-43.68 12.78-12.59 27.46-22.11 43.98-28.62 16.58-6.45 34.41-9.7 53.55-9.7 24.96 0 47.07 5 66.27 15 19.2 10 35.36 24.88 48.49 44.64l-60.26 29.28c-7.19-10-15.33-17.41-24.31-22.29-9.03-4.88-19.08-7.35-30.25-7.35-20.8 0-37.21 7.05-49.15 21.09-11.95 14.1-17.95 33.26-17.95 57.66 0 24.58 6 43.92 17.95 58.02 11.94 14.16 28.35 21.21 49.15 21.21 17.65 0 32.39-4.4 44.15-13.14 11.83-8.74 18.72-20.36 20.68-34.94h-69.18zm179.3 95.08V131.03h69.54v198.11h86.29v60.37H381.57zm188.34-258.48h69.18v125.74c0 18.44.47 31.75 1.37 39.77.95 8.08 2.5 14.82 4.76 20.25 2.61 6.57 7.31 11.63 13.9 15.12 6.6 3.44 14.68 5.18 24.19 5.18 9.51 0 17.53-1.75 24.13-5.18 6.54-3.5 11.23-8.56 13.97-15.12 2.25-5.43 3.8-12.17 4.75-20.25.89-8.01 1.37-21.33 1.37-39.77V131.03h69.18v136.65c0 28.38-1.66 49.28-5.05 62.78-3.39 13.44-9.03 24.94-17.06 34.52-8.67 10.42-20.62 18.32-35.84 23.56-15.21 5.24-33.64 7.83-55.33 7.83-21.87 0-40.29-2.59-55.45-7.83-15.15-5.24-27.16-13.14-35.95-23.56-7.9-9.58-13.55-21.09-17-34.52-3.39-13.5-5.11-34.4-5.11-62.78V131.03zm316.23 258.48V192.13h-57.06v-61.1h183.64v61.1h-57.06v197.38h-69.53zm160.52 0V131.03h156.18v56.76h-88.43v44.83h83.38v55.31h-83.38v43.74h88.43v57.84h-156.18zm202.12 0V131.03h67.04l96.4 132.91c1.84 2.71 4.87 8.19 9.09 16.39 4.28 8.13 8.91 17.89 14.03 29.22-1.37-10.73-2.38-20.24-3.03-28.62-.65-8.37-.95-15.79-.95-22.23V131.03h66.68v258.48h-66.68l-96.34-133.46c-2.02-2.71-5.11-8.19-9.33-16.33-4.28-8.19-8.85-17.83-13.85-28.92 1.37 10.85 2.38 20.43 3.03 28.8.65 8.37.95 15.79.95 22.23V389.5h-67.04zm-840.8 365.02V496.05h158.34v56.76h-89.65v44.83h84.53v55.31h-84.53v101.58h-68.69zm196.66 0V496.05h73.75c28.8 0 48.92 1.33 60.25 3.98 11.33 2.65 21.15 7.11 29.4 13.31 9.28 7.05 16.45 16.09 21.45 26.99 5 10.97 7.47 23.01 7.47 36.21 0 20-4.94 36.27-14.76 48.8-9.88 12.53-24.22 20.85-43.08 24.94l70.49 104.23h-79.53l-59.29-101.22v101.22h-66.16zm66.16-136.29h13.01c15.18 0 26.27-2.59 33.26-7.77 6.99-5.18 10.48-13.32 10.48-24.34 0-12.95-3.26-22.17-9.76-27.65-6.57-5.48-17.47-8.19-32.9-8.19h-14.1v67.96zm165.63 136.29V496.05h158.34v56.76h-89.65v44.83h84.53v55.31h-84.53v43.74h89.65v57.84H836.43zm204.91 0V496.05h158.34v56.76h-89.65v44.83h84.53v55.31h-84.53v43.74h89.65v57.84h-158.34zm-228.18 60.62c161.48 0 292.38 130.91 292.38 292.38 0 161.48-130.91 292.38-292.38 292.38-161.48 0-292.38-130.91-292.38-292.38 0-161.48 130.91-292.38 292.38-292.38z" class="fil2"/><path d="M813.16 809.79c82.22 0 156.66 33.33 210.54 87.21 53.88 53.88 87.21 128.32 87.21 210.54s-33.33 156.66-87.21 210.54c-53.88 53.88-128.32 87.21-210.54 87.21s-156.66-33.33-210.54-87.21c-53.88-53.88-87.21-128.32-87.21-210.54S548.74 950.88 602.62 897c53.88-53.88 128.32-87.21 210.54-87.21zm202.95 94.8c-51.94-51.94-123.69-84.06-202.95-84.06-79.26 0-151.01 32.13-202.95 84.06-51.94 51.94-84.06 123.69-84.06 202.95 0 79.26 32.13 151.01 84.06 202.95 51.94 51.94 123.69 84.06 202.95 84.06 79.26 0 151.01-32.13 202.95-84.06 51.94-51.94 84.06-123.69 84.06-202.95 0-79.26-32.13-151.01-84.06-202.95z" class="fil0"/><path d="M813.16 858.21c58.77 0 112.78 20.35 155.41 54.37l-118.18 21.6c-72.4-33.29-164.06 5.7-166.79 85.68 1.03 24.37-5.71 42.01-25.52 48.31-30.92 14.29-54.33 74.49-69.93 146.9-15.59-32.56-24.32-69.02-24.32-107.53 0-137.7 111.63-249.33 249.33-249.33zm165.16 62.57c51.62 45.68 84.17 112.42 84.17 186.76 0 137.7-111.63 249.33-249.33 249.33-50.13 0-96.8-14.81-135.9-40.27 10.44-7.47 20.47-15.09 30.06-22.87 6.96 13.96 28.51-7.4 31.33-7.4 2.28 0 42.54-.69 43.12.82 2.71 7.03 8.53 6.56 16.39 6.22 11.73-.51 11.4-11.38 19.05-3.14 1.34 1.45 27.44 8.19 32.18 9.49 9.39 2.58 27.2 6.41 37.63 5.96 2.48-.11 13.56 29.36 25.34 17.49 9.39-9.47-8.58-14.51 22.32-15.22 10.66-.25 20.78-3.44 24.91-13.49 3.2-7.77-13.06-4.55-19.4-4.77-1.13-.04-12.45.84-15.61.84-7.39 0-22.54 1.68-27.93-4.31-3.47-3.85-27.58-.59-37.94-4.6-3.96-1.53-9.43-.56-17.44-4.1-9.35-4.13-31.91-5.01-34.55-16.52-1.04-4.55-8.15-9.62-12.22-10.38-18.69-3.46-10.33.5-28.94-9.11l-1.77-.89c41.73-46.14 68.73-96.03 77.42-147.92 6.13-36.6-19.72-53.73-9.97-86.53l29.17-35.54 117.9-49.86zm-326.7 376.67a251.188 251.188 0 0 1-29.6-29.83c4.45-15.84 10.4-30.83 17.87-44.98-.12 18.32 1.67 32.82 7.48 39.28 45.67-16.94 91.34-59.4 137.01-99.13-38.03 50.42-81.04 96.41-132.76 134.66zm263.67-15.26c-.46-11.49-1.73-19.76-1.97-31.3-.28-12.89 23.02-31.8 34.63-34.65 14.01-3.45 18.82-6.98 35.71-7.97.51-.03 3.2-1.34 5.46-1.34.02-.08-1.86 8.6-13.52 15.88-8.62 5.39-8.29 20.9-22.37 33.34-7.67 6.78-18.13 16.75-28.2 20.07-2.49.82-9.84 3.47-9.74 5.96zm-18.82-6.56c-19.17 5.33-15.74-1.54-32.11-8.07-13.35-5.33-16.02-37.2-15.79-49.64.25-13.92-2.32-14.19 4.8-1.51 2.08 3.7 30.52 12.2 41.23 22.92 7.3 7.31 8.35 22.39 4.19 31.56-.42.93-1.49 4.8-2.32 4.74zm-141.1-25.95c-5.55 5.8-11.33 11.54-17.34 17.21 13.54 1.14 32.74.3 33.92-2.26 4-8.7-6.01-12.93-16.58-14.95zm28.76-293.77c7.11 0 12.87 5.76 12.87 12.87 0 7.11-5.76 12.87-12.87 12.87-7.11 0-12.87-5.76-12.87-12.87 0-7.11 5.76-12.87 12.87-12.87z" class="fil1"/><path d="M1475.51 1143.86v-46.5h-16.57v-9.46h44.39v9.46h-16.49v46.5h-11.33zm35 0v-55.96h16.97l10.03 38.16 9.91-38.16h17.01v55.96h-10.47l-.04-44.05-11.03 44.05H1532l-10.98-44.05-.04 44.05h-10.47z" class="fil0"/><path d="m721.6 1174.3-92.51 43.13-16.12 103.21 38.62-10.71 69.58-38.75 82.31-118.13z" class="fil1" style="stroke:#4e2424;stroke-width:6.09;stroke-miterlimit:22.9256"/><path d="m850.39 934.18 169.53-30.99-159.5 67.45-29.17 35.54c-9.75 32.8 16.1 49.93 9.97 86.53-8.69 51.89-35.69 101.79-77.42 147.92l1.77.89c18.61 9.61 10.25 5.65 28.94 9.11 4.07.75 11.18 5.83 12.22 10.38 2.64 11.52 25.2 12.4 34.55 16.52 8.01 3.54 13.48 2.56 17.44 4.1 10.35 4 34.47.75 37.94 4.6 5.39 5.99 20.54 4.31 27.93 4.31 3.16 0 14.48-.88 15.61-.84 6.34.22 22.6-3 19.4 4.77-4.13 10.04-14.26 13.24-24.91 13.49-30.89.71-12.93 5.75-22.32 15.22-11.78 11.88-22.86-17.59-25.34-17.49-10.44.45-28.25-3.38-37.63-5.96-4.74-1.3-30.84-8.04-32.18-9.49-7.65-8.24-7.32 2.63-19.05 3.14-7.86.34-13.68.81-16.39-6.22-.58-1.51-40.84-.82-43.12-.82-2.82 0-24.37 21.36-31.33 7.4-26.81 21.74-57.06 42.33-90.26 61.54-44.31 43.91-55.92 51.49-41.93-15.49l13.67-57.58c-12.14-2.71-17.7-11.97-6.38-38.12 15.31-84.87 40.68-159.75 75.65-175.91 19.81-6.3 26.56-23.93 25.52-48.31 2.73-79.97 94.4-118.97 166.79-85.68zm64.91 348.02c-.46-11.49-1.73-19.76-1.97-31.3-.28-12.89 23.02-31.8 34.63-34.65 14.01-3.45 18.82-6.98 35.71-7.97.51-.03 3.2-1.34 5.46-1.34.02-.08-1.86 8.6-13.52 15.88-8.62 5.39-8.29 20.9-22.37 33.34-7.67 6.78-18.13 16.75-28.2 20.07-2.49.82-9.84 3.47-9.74 5.96zm-18.82-6.56c-19.17 5.33-15.74-1.54-32.11-8.07-13.35-5.33-16.02-37.2-15.79-49.64.25-13.92-2.32-14.19 4.8-1.51 2.08 3.7 30.52 12.2 41.23 22.92 7.3 7.31 8.35 22.39 4.19 31.56-.42.93-1.49 4.8-2.32 4.74zm-141.1-25.95c-5.55 5.8-11.33 11.54-17.34 17.21 13.54 1.14 32.74.3 33.92-2.26 4-8.7-6.01-12.93-16.58-14.95zm-108.01 12.23c-5.81-6.46-7.6-20.96-7.48-39.28-15.79 29.89-24.81 63.57-27.12 101.01 69.61-42.59 124.45-98.32 171.62-160.86-45.67 39.74-91.34 82.19-137.01 99.13zm136.76-306.01c7.11 0 12.87 5.76 12.87 12.87 0 7.11-5.76 12.87-12.87 12.87-7.11 0-12.87-5.76-12.87-12.87 0-7.11 5.76-12.87 12.87-12.87z" class="fil2" style="stroke:#4e2424;stroke-width:8.05;stroke-miterlimit:22.9256"/></g></svg>