<svg xmlns="http://www.w3.org/2000/svg" xml:space="preserve" width="282.678" height="264.307" style="shape-rendering:geometricPrecision;text-rendering:geometricPrecision;image-rendering:optimizeQuality;fill-rule:evenodd;clip-rule:evenodd" viewBox="0 0 45990.53 43001.62"><defs><style>.fil0,.fil1{fill:#4e2424}.fil0{fill-rule:nonzero}</style></defs><g id="Capa_x0020_1"><path d="M0 16920.38h2707.16v3097.75h2964.31v-3097.75h2719.39v8871.85H5671.47v-3593.31H2707.16v3593.31H0v-8871.85zm15587.5 7409.7h-3070.57l-440.95 1462.14H9309.67l3301.16-8871.85h2966.4l3286.96 8871.85h-2837.82l-438.86-1462.14zm-573.71-1920.56-957.48-3188.57-961.6 3188.57h1919.08zm10328.33-247.81 2376.39 724.86c-159.26 673.27-410.39 1237.02-755.36 1687.2-343.06 452.27-767.66 793.05-1278.04 1022.29-508.41 229.18-1155.61 344.84-1941.59 344.84-955.45 0-1733.32-140.45-2339.62-419.25-604.34-280.83-1124.92-774.42-1563.85-1478.62-438.93-704.2-659.43-1608.74-659.43-2707.4 0-1466.2 385.86-2593.77 1157.57-3382.64 773.75-786.84 1866.02-1181.31 3278.78-1181.31 1104.45 0 1974.18 225.12 2607.05 677.39 630.9 452.27 1102.54 1146.14 1408.7 2083.7l-2388.63 534.91c-83.69-268.47-171.44-464.69-263.37-588.59-153.05-208.58-338.94-369.62-557.36-481.17-220.45-113.57-465.43-169.35-736.97-169.35-616.57 0-1088.15 249.9-1414.85 747.61-247.01 369.62-371.53 952.01-371.53 1742.97 0 983 146.96 1654.18 443.05 2019.68 295.96 363.48 710.41 545.18 1245.32 545.18 518.56 0 910.5-146.6 1175.9-441.94 265.46-293.25 457.37-720.74 577.83-1280.37zm9528.02 0 2376.39 724.86c-159.26 673.27-410.39 1237.02-755.36 1687.2-343.06 452.27-767.66 793.05-1278.04 1022.29-508.41 229.18-1155.61 344.84-1941.59 344.84-955.45 0-1733.32-140.45-2339.62-419.25-604.34-280.83-1124.92-774.42-1563.91-1478.62-438.86-704.2-659.37-1608.74-659.37-2707.4 0-1466.2 385.86-2593.77 1157.57-3382.64 773.75-786.84 1866.02-1181.31 3278.78-1181.31 1104.45 0 1974.18 225.12 2607.05 677.39 630.9 452.27 1102.54 1146.14 1408.7 2083.7l-2388.63 534.91c-83.69-268.47-171.44-464.69-263.37-588.59-153.11-208.58-338.94-369.62-557.36-481.17-220.45-113.57-465.43-169.35-736.97-169.35-616.57 0-1088.15 249.9-1414.85 747.61-247.01 369.62-371.53 952.01-371.53 1742.97 0 983 146.96 1654.18 443.05 2019.68 295.96 363.48 710.41 545.18 1245.32 545.18 518.56 0 910.5-146.6 1175.9-441.94 265.46-293.25 457.37-720.74 577.83-1280.37zm3672.75-5241.34h4507.81c981.95 0 1716.96 235.45 2206.99 708.38 487.87 472.93 732.85 1146.14 732.85 2019.68 0 896.3-267.43 1598.41-800.31 2102.33-532.82 505.95-1347.4 757.88-2441.7 757.88h-1486.31v3283.58h-2719.33v-8871.85zm2719.33 3791.62h667.61c526.73 0 896.3-92.91 1108.63-276.71 212.27-183.8 318.46-419.25 318.46-706.29 0-278.8-91.81-514.25-277.69-708.32-183.67-194.13-530.79-291.22-1041.17-291.22h-775.84v1982.54zM8423.08 29566.81l-357.26-790.9 527.23-238.16c153.54-69.36 245.17-120.77 276.03-154.71 30.25-33.7 32.71-79.51 6.95-136.45-28.9-63.95-70.41-94.51-124.34-90.95-54.48 3.81-158.34 39.91-311.95 109.33l-1408.95 636.5c-147.76 66.78-239.69 119.11-277.39 156.93-36.96 37.45-41.69 86.64-14.51 146.78 26.32 58.23 65.98 86.52 119.54 83.87 52.88-2.34 163.14-41.38 330.15-116.83l381.98-172.54 357.26 790.9-118.37 53.44c-314.77 142.23-548.2 220.75-699.28 235.82-151.82 15.43-311.52-31.11-479.2-137.93-167.93-107.49-301.61-272.04-402.21-494.76-104.35-230.96-148.87-440.4-133.07-628.69 16.23-187.55 86.95-339.74 213.44-455.4 126.49-115.67 338.14-240.55 635.7-374.97l886.83-400.68c218.79-98.82 386.04-165.17 502.14-199.91 116.34-34.07 241.85-37.63 376.76-8.42 134.73 28.53 261.22 95.43 378.97 200.95 117.76 105.46 215.1 244.12 292.58 415.62 104.9 232.25 146.84 444.46 125.13 636.87-21.34 191.48-88.55 341.22-201.2 449.93-113.02 108.04-310.9 225.92-594.31 354.01l-288.64 130.36zm1345.68 426.13-317.97 170.27c282.98-38.19 492.61 35.3 630.22 219.77l-806.7 521.32c-82.71-127.96-160.8-211.28-234.47-248.98-73.67-37.63-145-43.35-216.08-17.46-70.16 26.07-216.82 110.81-439.72 254.88l-905.83 585.27-450.42-697 2292.83-1481.57 448.15 693.5zm1367.57 871.89-341.52 267.67-527.6-672.96 341.52-267.73 527.6 673.02zm-474.16 371.65-2148.38 1684.19-527.6-673.02 2148.38-1684.19 527.6 673.02zm1078.07 720.37-323.26 283.04 152.62 174.33-326.46 285.87-152.68-174.33-1098.17 961.6c-134.67 118-203.78 191.55-206.61 219.22-2.77 27.67 41.08 93.71 132.7 198.31l-329.65 288.64-221.55-252.98c-124.89-142.66-208.33-249.72-249.84-321.6-41.57-70.9-61.31-148.87-59.22-232.81 2.09-84 25.21-155.57 70.53-215.77 45.26-59.15 169.59-178.26 373.5-356.83l1041.6-912.1-116.53-133.13 326.46-285.87 116.59 133.13 323.26-283.11 546.72 624.38zm1040.49 636.74-298.48 314.96-620.69-588.35 298.54-314.96 620.63 588.35zm-414.39 437.2-1878.07 1981.19-620.63-588.29 1878.01-1981.19 620.69 588.29zm1022.91 2173.04-612.52-488.61 197.02-246.95c68.32-85.72 107.55-149.55 117.76-191.67 10.27-42.18-3.81-78.52-42.24-109.15-38.37-30.62-74.71-38.06-109.33-21.71-34.62 16.42-88.92 70.96-163.32 164.3l-803.45 1007.23c-60.88 76.31-96.48 141.25-106.93 194.93-11.01 53.13 2.71 95.56 41.2 126.24 44.46 35.48 90.39 39.78 137.86 12.91 47.41-26.81 114.68-95.31 202.68-205.63l201.81-253.04 579.62 462.29c-136.82 169.29-244.86 292.39-324.24 368.21-78.83 76.37-184.72 134.79-316.99 175.62-131.71 41.32-265.21 45.38-399.2 12.97-134.05-32.41-272.78-106.2-417.16-221.37-183.31-146.16-304.38-293.99-361.57-442.92-57.13-147.89-63.4-296.57-17.65-445.14 46.18-149.05 151.51-327.26 317.85-535.84l483.81-606.55c144.94-181.71 272.1-303.95 382.41-366.8 109.7-63.34 253.34-83.51 430.81-60.51 176.85 22.57 350.69 101.89 521.94 238.46 169.65 135.34 285.63 287.16 349.09 455.34 62.84 167.81 70.72 322.28 22.69 463.64-47.53 141.68-151.7 312.81-311.95 513.7zm807.63 509.15-676.53-386.9 90.95-159.08c104.97-183.43 207.16-312.62 306.41-388.56 98.88-75.27 234.34-114.25 405.35-117.57 170.95-3.38 358.06 52.7 562.22 169.47 243.81 139.46 403.14 288.03 477.36 445.32 74.59 156.68 88.3 305.3 41.45 445.14-46.79 139.83-182.14 406.21-406.27 798.1l-680.46 1189.67-702.11-401.54 120.95-211.53c-92.67 60.2-186.2 90.88-280.09 93.77-93.9 2.89-189.02-23.18-285.87-78.59-126.18-72.13-221.74-173.71-286.73-304.75-64.69-131.59-28.59-316.37 108.41-555.88l111.55-195.05c101.46-177.4 198.49-282 291.53-314.53 92.97-32.53 274.87-28.04 545.49 13.53 290.49 42.37 452.82 52.7 488.3 30.13 34.93-22.87 80.74-83.26 137.56-182.57 70.78-123.72 107.67-209.38 110.38-258.02 3.01-47.53-17.34-84.24-60.57-108.96-49.38-28.29-88.85-29.88-118.62-4.8-29.95 24.17-83.14 102.87-158.77 235.14l-141.86 248.06zm44.58 456.63c-164.86 18.14-272.96 50.12-324 96.97-51.65 46.49-107.55 122.92-168.86 230.22-70.41 123.04-107.43 206.24-111.61 251.62-4.67 45.01 17.46 81.17 65.61 108.72 45.75 26.13 83.07 28.84 113.08 8.85 30.07-20.05 78.59-89.41 146.9-208.82l278.86-487.56zm2718.65-880.56-1385.28 3030.72-777.74-355.48 1385.22-3030.72 777.8 355.48zm3554.08 2481.18-855.34-146.72 97.77-570.21c28.53-166.09 37.2-270.75 26.32-315.33-11.01-43.9-47.53-71.58-109.09-82.15-69.24-11.87-117.82 5.41-145.06 52.14-27.3 47.29-55.53 153.54-84 319.63l-261.34 1523.88c-27.43 159.82-35.48 265.27-25.27 317.6 10.39 51.65 48.46 83.07 113.51 94.2 62.97 10.82 108.59-6.21 136.45-52.08 27.61-45.07 57-158.34 87.99-338.94l70.84-413.1 855.34 146.72-21.95 127.96c-58.36 340.48-123.97 577.9-196.03 711.52-72.25 134.42-200.22 240.68-382.6 319.82-183.06 78.95-394.28 97.65-635.14 56.33-249.78-42.8-448.27-123.23-595.36-241.72-146.35-118.43-232.87-262.2-257.96-431.79-25.03-169.53-10.02-414.88 45.2-736.67l164.49-959.08c40.58-236.68 79.26-412.42 115.42-528.09 36.89-115.42 104.23-221.43 203.97-316.86 99.06-95.62 225.3-163.01 378.6-201.57 153.36-38.49 322.71-41.51 508.23-9.72 251.13 43.11 450.49 127.16 597.76 252.79 146.72 124.95 233.18 264.41 260.17 418.63 26.32 154.16 13.16 384.14-39.35 690.67l-53.56 312.13zm2204.46 289.07-50.61 667.18c-18.63 245.04-44.83 423.31-78.03 536.27-33.14 112.28-93.71 214.67-181.77 308.01-88.12 93.28-197.2 158.22-327.56 196.22-130.3 37.33-276.96 50.12-440.83 37.69-183.43-13.96-337.34-46-461-95.56-124.34-50.24-218.42-118.62-282.25-205.2-64.5-87.26-107.43-189.82-128.76-307.64-21.34-117.76-22.87-292.51-5.35-523.6l52.94-697.93c19.25-253.47 61.55-448.83 126.98-587.49 65.37-137.99 172.73-244.61 321.42-320 148.62-75.27 334.02-104.84 555.21-88.06 185.58 14.02 343 54.17 472.56 119.66 128.82 65.37 226.29 145.3 292.33 239.69 65.37 94.39 108.1 189.89 127.53 286.43 19.43 96.54 21.89 241.11 7.19 434.31zm-811.93-267.98c10.58-139.28 9.53-228.07-2.46-264.9-12.61-37.57-43.47-58.17-93.16-61.98-49.75-3.75-84 11.93-103.55 47.04-18.82 34.56-33.94 122.06-44.52 261.4l-93.22 1228.66c-9.78 128.82-7.75 213.5 5.47 253.22 13.84 40.52 44.52 62.54 92.85 66.23 49.62 3.75 83.26-11.31 102.01-45.81 18.82-34.5 32.34-110.19 41.26-227.76l95.31-1256.08zm1831.89-747.43 6.52 253.71c52.58-105.4 120.4-186.56 203.29-244.31 83.01-56.94 181.15-89.78 295.34-98.45 142.11-10.76 260.85 14.02 356.28 74.4 95.37 59.65 159.94 139.95 193.57 240.25 33.57 99.49 59.77 268.66 77.85 506.63l144.81 1908.51-827.55 62.78-143.03-1885.39c-14.2-186.93-29.21-301.25-44.89-340.91-15-40.4-50.85-58.05-107.61-53.74-59.46 4.49-94.76 31.11-106.63 79.2-11.07 48.64-9.22 175.31 6.33 380.39l139.59 1839.88-827.49 62.84-206.55-2722.04 840.16-63.77zm2145.19-633.67 72.62 423.55 228.38-39.17 73.36 427.67-228.38 39.17 246.7 1438.71c30.25 176.48 56.94 273.76 79.08 290.61 22.14 16.85 101.4 13.96 238.4-9.53l74.04 431.79-331.44 56.88c-186.87 32.04-321.72 47.29-404.67 45.2-82.21-1.6-159.02-25.46-229.49-71.08-70.53-45.63-119.54-102.75-147.21-172.79-26.81-69.55-63.52-237.73-109.33-504.91l-234.04-1364.62-174.39 29.95-73.3-427.73 174.33-29.88-72.62-423.55 817.96-140.26zm1178.36 74.59 71.21 353.58c45.13-281.88 176.05-461.43 392.44-539.83l266.07 922.86c-146.41 42.24-248.73 92.91-306.1 152.62-57.25 59.65-83.38 126.3-79.14 201.81 4.73 74.65 43.54 239.57 117.02 494.57l298.79 1036.25-797.42 229.92-756.28-2623.04 793.42-228.75zm2745.1 29.21 249.9 620.63c91.75 228.01 147.15 399.51 167.38 515.42 19.92 115.42 10.95 234.04-26.69 356.71-37.76 122.68-106.81 229.12-206.86 320.92-100.35 91.13-226.23 167.5-378.66 228.87-170.64 68.69-322.89 108.04-455.65 118.37-133.74 9.96-248.42-9.72-343.98-59.09-96.42-49.75-180.29-122.68-251.56-218.85-71.27-96.23-149.98-252.24-236.56-467.21l-261.4-649.29c-94.94-235.82-143.46-429.7-146.16-583-2.46-152.68 46.67-295.83 146.6-429.21 99.98-133.31 253.1-241.85 458.91-324.74 172.61-69.49 331.56-103.18 476.68-101.83 144.44 1.66 267.24 30.19 368.27 85.66 100.35 55.65 180.97 122.37 241.11 200.34 60.2 77.97 126.3 206.55 198.68 386.29zm-846.67 119.05c-52.21-129.62-92.36-208.7-119.48-236.5-27.92-28.1-64.69-32.9-110.93-14.33-46.3 18.63-70.04 47.84-72.07 87.99-1.6 39.29 23.61 124.52 75.82 254.08l460.14 1143.06c48.27 119.85 87.56 194.87 116.96 224.63 30.32 30.25 67.64 36.4 112.59 18.32 46.18-18.57 69.61-46.98 71.21-86.21 1.6-39.29-19.74-113.14-63.83-222.54l-470.41-1168.52zm1190.04-2061.8 1551.24 2949.25-756.9 398.09-1551.18-2949.25 756.84-398.09zm1673.98-1058.33 656.6-575.01c177.46-155.39 325.78-260.97 445.87-316.74 119.66-55.22 226.6-78.03 320.49-67.76 94.33 10.7 182.44 46.43 265.15 105.64 82.64 60.2 192.28 168.49 329.65 325.35l191.05 218.17c139.71 159.51 225.55 290.61 256.11 392.56 31.61 102.14 20.29 211.84-33.14 327.69-53.99 116.34-152.01 236.74-294.11 361.2l-174.82 153.11 885.35 1010.98-652.91 571.68-2195.3-2506.88zm1027.58-143.89 559.26 638.65c19.31-15.13 35.66-28.47 48.89-40.03 59.71-52.33 87.93-103.18 85.29-153.11-2.71-48.95-44.77-120.4-126.18-213.31l-180.85-206.55c-74.96-85.6-137.19-129.99-186.81-132.27-49.07-2.77-115.67 33.08-199.6 106.63zm2806.71-1443.14 510.01 433.08c187.36 159.08 316.19 285.07 388.01 378.29 71.39 92.85 118.62 202 142.35 328.12 23.74 126.12 12.11 252.54-33.76 380.32-46.36 127.35-122.24 253.53-228.62 378.79-119.05 140.26-235.51 245.9-348.23 316.8-113.76 71.08-224.38 106.99-331.93 107.79-108.53.86-216.7-24.66-324.55-76.68-107.86-51.96-250.15-153.42-426.75-303.4l-533.56-453.07c-193.76-164.55-326.95-313.54-400.68-448.03-73.17-133.99-96.36-283.54-69.92-448.09 26.44-164.55 111.42-331.87 255-500.97 120.46-141.86 245.47-245.66 374.54-312.01 128.64-65.73 250.58-97.65 365.81-95.56 114.74 2.58 217.13 24.1 306.66 65.12 89.53 41.01 207.9 124.03 355.6 249.47zm-693.99 499.37c-106.5-90.39-178.94-141.74-215.77-153.73-37.88-11.87-72.62.98-104.9 38.99-32.28 38-39.72 74.9-22.81 111.42 16.85 35.48 78.83 99.19 185.33 189.58l939.22 797.6c98.51 83.63 168.18 131.78 208.09 144.44 40.89 12.61 76.8.74 108.16-36.22 32.22-37.94 39.72-73.97 22.87-109.45-16.85-35.48-70.1-90.95-160-167.26l-960.19-815.37zm145.12-2364.59 354.01 250.95-494.45 697.68-354.07-250.95 494.51-697.68zm491.5 348.35 2227.15 1578.61-494.51 697.68-2227.15-1578.61 494.51-697.68zm616.27-955.51 213.74 136.82c-57.8-102.57-87.01-204.21-88.3-305.24-.68-100.72 27.24-200.34 84.06-299.77 70.78-123.72 157.91-208.15 261.34-253.28 102.94-45.5 205.63-53.93 307.46-25.58 101.28 28.04 255.99 101.15 463.21 219.65l1661.43 950.23-411.99 720.43-1641.33-938.73c-162.77-93.1-265.83-144.75-307.46-154.04-41.88-10.21-76.62 9.59-104.84 58.97-29.64 51.78-27.43 95.93 5.72 132.7 34.13 36.46 140.08 105.95 318.59 208.09l1601.73 916.04-411.99 720.37-2369.69-1355.27 418.33-731.38zm669.46-2146.48 390.78 178.63 96.36-210.73 394.65 180.42-96.3 210.73 1327.54 606.8c162.89 74.4 258.33 107.24 284.7 98.45 26.38-8.79 68.62-75.94 126.43-202.37l398.46 182.14-139.77 305.86c-78.83 172.42-142.23 292.45-190.68 359.79-47.66 67.03-110.62 117.02-188.04 149.55-77.42 32.59-152.19 40.89-225.67 24.29-72.56-17.03-232.19-81.48-478.71-194.13l-1259.28-575.56-73.54 160.86-394.65-180.35 73.54-160.92-390.84-178.63 345.03-754.81zM22818.94 8717.81c3529.79 0 6725.61 1430.84 9038.86 3744.08 963.82 963.88 1774.33 2081.05 2392.14 3311.68h-1774.82c-480-807.63-1058.39-1549.89-1718.74-2210.24-2031.3-2031.3-4837.65-3287.76-7937.42-3287.76-3099.84 0-5906.18 1256.45-7937.48 3287.76-660.36 660.36-1238.68 1402.62-1718.74 2210.24h-1774.82c617.86-1230.63 1428.32-2347.8 2392.14-3311.68 2313.24-2313.24 5509.07-3744.08 9038.92-3744.08zm11430.99 18510.24c-617.8 1230.63-1428.32 2347.8-2392.14 3311.62-2313.24 2313.24-5509.07 3744.15-9038.86 3744.15-3529.85 0-6725.68-1430.9-9038.92-3744.15-963.82-963.82-1774.27-2080.99-2392.14-3311.62h1774.82c480.06 807.57 1058.39 1549.89 1718.74 2210.24 2031.3 2031.3 4837.65 3287.76 7937.48 3287.76 3099.78 0 5906.12-1256.45 7937.42-3287.76 660.36-660.36 1238.74-1402.68 1718.74-2210.24h1774.82zM9989.33 8273.72l2429.95 2280.1-593.82 632.87-1019.9-957.05-172.98 184.35 1019.9 957.05-593.76 632.81-2429.95-2280.1 593.76-632.81 869.36 815.74 172.98-184.35-869.36-815.74 593.82-632.87zm2245.6 263.55-614.36 479.45-112.78-144.44c-129.99-166.64-210.79-310.16-243.44-430.75-32.22-120.03-16.91-260.17 44.7-419.62 61.74-159.51 184.54-311.39 369.99-456.08 221.37-172.79 419.19-263.98 592.9-273.02 173.28-9.65 315.94 33.94 427.61 130.3 111.67 96.3 306.9 322.46 584.6 678.37l843.17 1080.46-637.6 497.59-149.92-192.1c20.6 108.59 13.53 206.8-19.37 294.79-32.84 87.93-93.04 166.09-181.03 234.77-114.56 89.41-244.74 139.4-390.65 149.92-146.29 9.9-303.64-93.53-473.36-311.02l-138.23-177.16c-125.69-161.05-185.77-290.49-180.6-388.93 5.1-98.39 78.22-264.97 219.22-499.74 149.18-252.67 220.32-398.96 212.94-440.4-7.99-41.01-46.43-106.26-116.83-196.46-87.69-112.34-152.99-178.94-196.96-199.91-42.98-20.78-84.61-15.93-123.91 14.76-44.83 34.93-61.25 70.96-49.32 107.92 10.95 36.89 63.71 115.91 157.48 236.07l175.74 225.24zm439.48 131.78c-45.69 159.45-57 271.61-33.02 336.6 23.43 65.43 73.05 146.04 149.05 243.51 87.26 111.79 150.16 177.53 190.62 198.56 39.91 21.46 81.72 14.57 125.44-19.55 41.51-32.34 58.11-65.86 51.04-101.21-7.13-35.42-52.94-106.63-137.56-215.04l-345.58-442.86zm1256.02-2645.23 331.81 506.14 353.21 1654.06 511.42-335.25 300.2 457.99-1183.71 776.08-313.79-478.59-360.65-1688.61-469.12 307.58-300.26-457.99 1130.89-741.4zm1639.97 340.35-710.35 320.55-75.39-167.07c-86.95-192.59-131.53-351.24-134.73-476.07-2.89-124.21 45.13-256.79 142.72-397.17 97.71-140.38 252.91-258.94 467.33-355.67 255.99-115.48 469.79-157.36 640.68-125.01 170.64 31.61 298.91 107.67 384.69 227.7 85.72 120.03 221.86 385.92 407.56 797.42l563.69 1249.2-737.22 332.67-100.17-222.05c-5.66 110.38-35.85 204.09-88.55 281.81-52.76 77.66-129.69 139.4-231.39 185.27-132.51 59.83-270.81 77.54-415.13 53.25-144.44-24.9-272.84-162.64-386.35-414.08l-92.42-204.83c-84-186.2-111.73-326.21-83.44-420.6 28.22-94.45 138.66-239.02 331.13-433.7 204.77-210.24 308.44-335.56 311.08-377.56 1.91-41.75-19.98-114.25-67.09-218.54-58.6-129.93-106.32-210.12-144.07-240.8-36.83-30.44-78.4-35.54-123.84-15-51.84 23.37-76.31 54.42-73.42 93.22 1.84 38.43 34.44 127.66 97.09 266.56l117.57 260.48zm395.82 231.95c-82.09 144.07-119.6 250.39-111.67 319.2 7.26 69.12 36.4 159.2 87.26 271.85 58.29 129.25 103.92 208.03 138.23 238.03 33.7 30.25 75.94 33.51 126.49 10.7 48.02-21.64 72.07-50.24 73.54-86.33 1.41-36.1-26.26-116.1-82.83-241.48l-231.02-511.98zm1584.82-2120.84 74.9 352.84c42.24-282.37 171.31-463.21 386.78-543.89l275.6 920.16c-145.92 43.66-247.69 95.37-304.44 155.57-56.76 60.26-82.09 127.23-77.11 202.74 5.47 74.53 46 239.08 122.12 493.28l309.42 1033.12-795.02 238.09-783.22-2615.04 790.96-236.86zm2766.99-1221.34 521.02 3291.2-819.68 129.81-31.05-196.28c-66.04 95-138.91 169.1-219.09 223.77-80.92 54.79-168.42 89.9-263.49 104.97-127.53 20.23-243.75 4.49-348.04-47.96-104.29-52.45-176.91-120.58-217.19-204.46-40.28-83.87-76.19-225.37-107.79-425.09l-199.91-1262.79c-32.84-207.35-42.92-356.47-30.32-447.35 12.61-90.82 61.55-176.73 146.1-257.71 84.61-80.92 193.14-131.47 324.98-152.31 101.89-16.17 197.76-12.18 288.95 11.07 90.39 23.37 176.05 65.98 257.16 129.19l-121.32-766.3 819.68-129.75zm-618.11 1402.99c-15.62-98.51-34.5-163.75-57.19-194.93-22.69-31.3-59.34-42.55-109.95-34.56-49.93 7.93-80.8 28.41-93.34 61.74-12.48 33.21-10.02 102.51 6.64 207.96l209.13 1321.02c17.34 109.58 37.08 180.35 59.22 212.39 22.14 32.04 56.08 44.46 103.24 37.02 53.37-8.42 86.4-33.57 97.53-75.14 12.05-41.01 6.15-136.76-17.71-287.29l-197.57-1248.21zm4446.31-1577.68 474.1 3335.35-885.29-5.72-43.17-598.5-312.44-2.03-50.91 597.88-896.61-5.84 461.12-3329.26 1253.19 8.12zM23672.5 5220.5c-39.05-378.05-79.51-845.94-122.18-1404.4-89.84 639.76-146.9 1107.03-171.99 1402.49l294.17 1.91zm2328.62-1234.93-52.08 248.42c75.45-90.45 160.18-153.85 254.14-190.81 93.9-36.34 197.02-45.63 310.04-27.73 140.75 22.32 250.64 73.85 329.53 154.53 79.02 80.06 123.29 173.1 133.01 278.37 9.72 104.66-3.81 275.24-41.14 511.05l-299.28 1890.37-819.68-129.75 295.65-1867.55c29.33-185.15 41.08-299.89 34.99-342.08-5.35-42.8-36.16-68.26-92.3-77.17-58.91-9.29-99.49 8.42-122.06 52.45-22.08 44.89-49.38 168.49-81.54 371.65l-288.58 1822.48-819.62-129.75 426.81-2696.21 832.1 131.71zm2136.7 1623.56-737.77-251.07 59.03-173.47c68.07-200.09 143.83-346.38 226.78-439.72 82.71-92.73 208.27-156.8 375.47-192.65 167.26-35.79 361.57-16.36 584.23 59.4 265.89 90.45 450.61 205.93 553.36 346.2 103.06 139.65 144.81 282.86 125.44 429.09-19.31 146.23-101.46 433.45-246.89 860.82l-441.45 1297.47-765.69-260.48 78.46-230.65c-79.45 76.74-165.53 124.64-257.1 145.37-91.62 20.72-189.95 13.28-295.59-22.69-137.62-46.86-250.76-128.33-339.56-244.61-88.55-116.9-88.24-305.12.61-566.34l72.38-212.76c65.8-193.39 141.12-314.59 226.29-364.21 85.1-49.68 264.54-79.88 538.11-90.64 293.13-13.71 454.48-34.44 485.04-63.34 29.95-29.15 63.46-97.09 100.29-205.38 45.93-134.97 65.86-226.1 59.28-274.31-6.21-47.35-33.08-79.51-80.25-95.56-53.8-18.32-92.91-12.3-117.33 17.96-24.84 29.33-62.04 116.77-111.11 261.03l-92.05 270.56zm130.73 439.72c-158.4 49.19-258.39 101.28-299.65 156.93-41.81 55.47-82.09 141.12-121.94 258.14-45.63 134.24-66.16 222.97-61.55 268.29 3.94 45.13 32.59 76.37 85.1 94.2 49.81 16.97 86.95 12.54 112.65-12.85 25.7-25.33 60.14-102.69 104.41-232.87l180.97-531.84zm2802.34-1022.72-1408.46 3019.96-775.04-361.45 1408.46-3019.96 775.04 361.45zm1697.78 1656.51-1180.63 1601.11c-187.3 253.71-320 423.86-398.09 510.38-78.03 86.52-161.05 147.64-248.67 182.63-87.44 36.1-185.58 42.61-293.87 21.58-108.35-20.97-263-88.49-462.72-201.63l-438.06-248.18 215.96-381.18c112.41 63.71 187.67 99.06 225.92 105.46 38.62 7.32 69.67-8.98 91.87-48.09 11.07-19.55 42.49-110.68 95.62-274.19l729.29-2210.31 655.44 371.35-672.78 1740.33 1026.47-1539.93 654.27 370.67zm1295.01 2104.29-567.07-464.57 93.9-114.56c80.12-97.77 125.01-163.63 134.91-199.05 10.52-34.93-7.07-71.15-51.59-107.61-35.85-29.39-72.81-39.66-110.32-30.44-37.45 9.22-76.06 37.51-115.17 85.29-53.01 64.63-87.81 115.97-103.06 153.42-16.17 37.51-16.17 92.91-.55 165.66 14.76 72.93 63.95 201.2 146.96 384.51 111.55 243.87 162.89 429.33 154.71 557.91-7.75 128.02-74.53 269.33-200.46 423-141.06 172.18-269.7 283.78-385.86 334.7-116.22 50.91-246.21 57.86-389.18 19.68-143.52-38.62-288.09-118.06-435.85-239.08-162.89-133.5-282.12-273.82-356.4-419.12-74.4-146.29-97.71-280.65-69.98-403.2 27.73-122.49 113.7-271.73 257.83-447.66l83.2-101.52 570.27 467.21-108.96 133.07c-92.61 112.96-145.55 192.04-159.51 237.85-12.91 45.69 1.48 85.66 43.35 119.97 45.63 37.33 86.46 51.71 123.11 43.6 36.59-8.12 85.41-48.89 145.06-121.63 82.77-101.03 122.98-173.41 120.52-218.05-3.57-45.57-66.1-222.97-187.55-532.21-101.71-260.29-138.05-450.73-108.16-571.5 29.52-120.09 92.97-239.63 190.44-358.62 138.36-168.92 262.57-275.05 372.45-318.34 110.38-43.9 236.62-44.03 378.66-.25 142.04 43.78 283.66 123.54 424.35 238.77 140.08 114.87 244.31 230.22 313.18 345.64 68.93 116.28 105.64 224.44 110.25 326.21 4.55 100.91-7.93 181.46-38 240.31-29.58 59.28-88.18 141.98-174.94 247.93l-100.54 122.68zm1925.85-212.51-296.88 316.43-623.58-585.15 296.88-316.43 623.58 585.15zm-412.18 439.36-1867.92 1990.66-623.58-585.15 1867.86-1990.66 623.65 585.15zm835.42 2226.42-500.6-535.53 108.22-101.15c92.3-86.27 145.55-145.61 160.06-179.43 15.07-33.21 2.4-71.39-36.89-113.45-31.67-33.88-66.9-49.01-105.33-44.83-38.31 4.18-80.37 27.18-125.44 69.3-61.06 57.06-102.38 103.37-122.43 138.48-21.03 35.05-28.35 89.96-22.51 164.12 4.98 74.22 36.77 207.9 94.88 400.62 78.28 256.42 104.6 447.1 79.51 573.47-24.66 125.87-109.52 257.1-254.7 392.75-162.58 152.01-304.81 245.6-426.69 280.71-121.94 35.11-251.68 24.78-388.38-31.98-137.19-57.31-269.95-155.14-400.37-294.67-143.83-153.85-243.44-308.75-297.86-462.54-54.42-154.9-59.71-291.16-16.05-408.92 43.72-117.76 148.69-254.27 314.84-409.59l95.93-89.65 503.43 538.54-125.69 117.45c-106.69 99.74-169.65 171.13-189.52 214.67-18.88 43.6-9.84 85.1 27.12 124.64 40.28 43.04 78.83 62.72 116.22 59.52 37.33-3.2 91.13-37.14 159.88-101.4 95.37-89.16 144.87-155.57 148.32-200.15 2.52-45.63-35.97-229.73-115.48-552.32-66.35-271.48-77.23-465.06-31.61-580.79 45.13-115.17 123.84-225.3 236.19-330.33 159.51-149.05 296.63-237.85 411.32-266.26 115.23-28.96 240.31-12.3 375.34 49.87 135.03 62.17 264.84 160 388.99 292.82 123.72 132.33 211.78 260.48 264.78 383.95 52.94 124.46 74.96 236.5 66.1 338.02-8.85 100.54-31.91 178.76-69.42 233.11-37.2 54.91-106.2 129.07-206.24 222.6l-115.91 108.35z" class="fil0"/><path d="M22818.94 0c5937.11 0 11312.37 2406.59 15203.3 6297.45 2591.18 2591.18 4523.61 5840.82 5525.86 9476.12h-1620.91c-959.08-3204.44-2701.99-6070.3-5006.38-8374.69-3608.93-3608.93-8594.77-5841.12-14101.87-5841.12-5507.22 0-10493 2232.2-14101.93 5841.12-2304.39 2304.39-4047.3 5170.25-5006.38 8374.69H2089.72c1002.25-3635.31 2934.67-6884.94 5525.86-9476.12C11506.51 2406.59 16881.77 0 22818.94 0zM43548.1 27228.05c-1002.25 3635.31-2934.67 6884.94-5525.86 9476.06-3890.93 3890.86-9266.19 6297.51-15203.3 6297.51-5937.17 0-11312.44-2406.65-15203.36-6297.51-2591.18-2591.12-4523.61-5840.75-5525.86-9476.06h1620.91c959.08 3204.44 2701.99 6070.24 5006.38 8374.69 3608.93 3608.93 8594.7 5841.12 14101.93 5841.12 5507.1 0 10492.94-2232.2 14101.87-5841.12 2304.39-2304.45 4047.3-5170.25 5006.38-8374.69h1620.91z" class="fil0"/><circle cx="17328.12" cy="37398.59" r="609.31" class="fil1"/><circle cx="32224.29" cy="35646.93" r="609.31" class="fil1"/><circle cx="21544.53" cy="4660.61" r="609.31" class="fil1"/></g></svg>