<svg xmlns="http://www.w3.org/2000/svg" xml:space="preserve" width="70mm" height="70mm" style="shape-rendering:geometricPrecision;text-rendering:geometricPrecision;image-rendering:optimizeQuality;fill-rule:evenodd;clip-rule:evenodd" viewBox="0 0 3604.87 3604.87"><defs><style>.fil0{fill:#4e2424}.fil2{fill:#bbe4fe}</style></defs><g id="Capa_x0020_1"><path d="m1842.52 2622-.48 33.35c-2.52 3.99 2.14 4.9-18.51 4.78-6.8-.04-13.69-.19-20.51-.25l-1.45-41.56 31.17-.32c12.57 1.79 5.45.41 9.78 4zm446.61-58.03c-7.52 61.96-49.08 126.11-122.92 97.23-80.05-31.32-75.62-204.7-24.19-252.19 20.09-18.55 54.95-27.4 88.3-15.02 53.2 19.74 67.31 99.86 58.81 169.97zm-934.28-6.07c-5.64-70.51 6.53-147.04 63.52-165.14 145.68-46.27 157.49 238.72 55.14 270.59-75.36 23.46-113.45-40.27-118.66-105.45zm-215.33-6.07c-5.11-69.82 10.04-144.58 68.05-160.24 144.91-39.11 152.53 248.35 45.76 273.24-76.05 17.73-108.95-46.56-113.82-113.01zm701.04-90.93c4.78 8.76 3.19 28.41 1.96 40.59-8.15 3.48-33.26 5.2-40.92-1.13l.92-39.64 38.04.18zM928.9 2595.2l33.42-.78c9.44 56.35 57.02 47.86 73 37.56 22.87-14.74 34.96-57.15 37.91-92.28-12.33 12.29-15.31 20-39.89 26.36-20.34 5.26-42.98 3-60.53-4.49-67.87-28.99-59.2-142.3 4.54-166.63 39.41-15.05 77.76-4.03 100.34 19.28 54.74 56.51 45.25 273.3-87.75 251.37-35.23-5.81-60.08-31.23-61.05-70.38zm1486.49-204.85 5.75-3.04c10.84-2.73 13.77-1.64 24 1.08l.27 271.29-37.3.92c-6.56-50.71 7.62-152.83-2.78-193.66l-60.57.29-.03-27.39c18.26-1.2 36.72-2.17 50.9-10.87 9.41-5.76 19.99-22.64 19.76-38.61zM1593 2440.24c51.33-6.17 57.28-6.29 73.26-51.7l25.67.07.47 270.65-34.76.27-1.63-192.03-62.97-.45-.04-26.8zm984.5 59.31c24.6-8.16 29.44-16.96 62.09-14.05 65.3 5.83 98.77 74.63 68.61 134.54-36.67 72.83-174.81 60.75-174.26-27.76l33.22.25c7.7 19.33 5.16 23.32 19.29 34.21 29.87 23 95.66 12.96 96.09-50.64.39-59.3-62.36-73.52-95.14-49.66-22.11 16.09-9.9 16.12-44.26 12.96l20-143.54c16.53-5.34 116.46-2.37 140.7-1.7l.1 32.92-114.85.31-11.57 72.17zm-650.47-13.92-34.1.02c4.83-133.02 155.17-115.43 175.75-39.74 30.88 113.63-128.06 107.47-143.74 180.72l146.72 1.12-.08 31.49-183.76.32c-8.17-40.13 25.04-81.23 43.09-94.36 22.1-16.07 71-39.13 87.18-55.48 71.73-72.53-82.92-152.33-91.05-24.09zm-149.68-456.07 1.62-23.33 26.35.17 1.4 22.71c32.77 3.57 64.06 3.69 96.7 8.65 26 3.95 69.54 16.63 89.7 17.22l18.55-48.39 26.48.72-19.61 55.87c17.03 8.17 43.82 16 63.23 24.11 15.46 6.46 47.44 23.86 61.24 25.5 4.91-10.2 15.9-21.31 23.65-31.33 59.65-77.08 32.55-74.34 78.67-75.05-3.21 16.86-44.91 73.72-58.55 92.3-7.45 10.15-14.3 16.92-21.4 28.19l73.95 49.16c16.39-7.89 59.38-49.13 73.3-63.88l22.77-22.77c55.85-57.56 40.58-86.27 93.41-82.38-32.68 50.98-66.22 95.71-108.86 136.71l-67.2 57.26c-249.49 188-580.69 211.3-848.3 50.4-35.22-21.18-78.95-53.3-109.18-79-32.77-27.87-131.59-135.45-139.69-165.94l29.51.41 71.61 91.88c13.7 14.33 69.59 68.83 87.17 77.66 12.58-7.53 25.16-16.92 38.46-26.14 11.93-8.27 25.63-15.48 36.83-22.65-7.52-13.94-72.98-90.75-80.62-121.07l28.33.38c25.49 34.67 42.04 71.48 77.85 106.5 38.7-18.7 78.12-35.9 121.17-49.21l-19.47-57.33 25.98-.32 20.37 48.65c62.64-6.47 70.48-21.47 184.59-25.64zm552.16-766.47c103.65-8.45 208.35 19.35 278.19 67.58 146.65 101.26 148.28 375.22 45.97 506.33-100.42 128.7-364.61 146.65-518.9 39.25-152.62-106.23-145.9-381.63-45.34-506.35 52.16-64.71 160.83-100.34 240.09-106.8zm-1412.93 7.28 418.57.05-.18 158.71-94.87.22.03 342.64 94.85.13c.35 39.79 2.62 124.51-1.43 158.94l-416.96-.22-.21-157.27 92.85.02c4.23-12.99 4.84-319.84 1.08-344.41l-93.75-.46-.02-124.38.04-33.98zm591.18 421.61c9.93 10.75 14.91 22 27.11 34.41 33.39 33.93 62.17 48.76 114.45 61.12 118.79 28.1 183.02-21.52 123.72-47.34-97.14-42.29-252.95-55.93-337.24-130.15-104.73-92.2-71.61-256.53 29.2-308.89 188.41-97.86 354.99 14.38 372.39 14.68l.11-33.25 138.75-.19-.09 220.3-134.49-.63c-35.17-40.12-73.29-73.24-147.52-86.61-30.58-5.51-77.81-11.39-104.14 1.37-13.17 6.38-23.97 18.56-13.8 34.37 13.54 21.06 177.24 60.77 216.29 72.7 32.79 10.02 55.21 14.87 85.02 29.98 217.28 110.05 133.69 430.45-181.3 389.83-107.67-13.88-115.67-37.62-173.97-57.03l-1.09 44.26-139.89.04c-6.45-21.46-1.96-201.59-2.03-239.3l128.51.31zm-351.33-492.48c1.39-11.25 39.46-59.94 49.61-72.5 3.44-4.25 5.2-5.3 8.67-9.5l50.87-55.32c42.12-40.53 81.79-70.55 138.87-106.88 98.03-62.4 244.86-106.77 385.62-106.93 205.44-.23 388.66 80.72 528.47 212.88 19.44 18.36 98.16 108.73 109.81 138.27l-32.17-.46c-4.89-12.93-24.11-36.81-33.48-48.4-32.73-40.47-38.1-43.15-78.1-82.91-9.83-9.76-9.94-10.59-20.45-18.97-11.06-8.82-8.6-10.3-21.78-16.52-7.67 5.22-71.07 45.82-74.44 50.51 16.66 26.26 60.31 70.11 78.2 116.7-36.87-.27-20.29 11.01-58.55-46.65-8.73-13.16-33.8-48.79-45.39-57.07-19.49 5.6-39.75 18.72-60.26 26.79-14.43 5.68-50.86 17.64-61.9 24.21l17.16 52.39c-44.1 1.24-19.9-2.36-43.75-44.36-22.08 1.37-60.79 13.05-87.36 17.05-29.96 4.51-63.63 8.03-94.77 8.45-10.75 2.27-6.48 22.69-8.39 16.26-.13-.44-.3 1.79-.72 2.79l-22.49-.22-1.74-18.82c-79.15-.15-175.52-25.58-188.61-24.99l-17.86 43.96-26.42.09 19.28-55.21c-41.05-6.63-102.41-43.29-124.16-48.84-16.71 20.67-61.04 74.13-71.59 103.95l-30.73-.26c6.68-18.55 26.91-46.37 38.14-62.85l40.27-56.02-75.49-47.82c-22.74 16.03-77.89 66.71-92.46 85.51-7.33 9.46-12.85 15.22-20.72 24.84-47.74 58.39-26.29 55.75-71.21 56.85zm596.62-743.92c-259.88 7.13-497.64 92.81-700.82 226.22-18 11.82-32.01 22.98-49.57 35.43-35.98 25.49-51.35 40.04-81.12 64.58-4.77 3.93-7.47 4.96-12.22 9.16l-86.57 83.33c-238.54 261.52-384.3 593.59-368.96 979.42 11.93 299.99 118.79 575.52 297.25 796.08 25.79 31.87 50.78 62.68 80.2 89.78 22.97 21.16 60.15 63.36 84.62 82.35 59.88 46.46 74.09 60.7 145.35 109.72 59.12 40.67 143.98 86.18 219.95 116.99 930.34 377.21 1906.08-322 1869.46-1295.08-8.81-234.17-79.25-462.69-193.58-647.75-18.26-29.54-46.75-75.43-67.84-102.11-62.7-79.29-61.93-83.77-137.31-157.24-7.52-7.34-12.66-14.98-20.25-22.19-53.91-51.18-127.84-107.88-188.6-148.46-225.23-150.42-503.56-228.08-789.98-220.21z" class="fil0"/><path d="M42.77 1878.01c-7.22-267.99 36.68-523.67 130.85-745.32 62.73-147.63 164.34-327.86 267.25-446 50.35-57.8 102.05-120.46 160.72-170.08l72.16-64.37c6.31-4.98 7.52-5.89 15.02-12.28 85.81-73.15 229.55-164.06 335.87-216.49 448.37-221.06 987.34-240.16 1450.34-46.86 157.42 65.72 318.09 160.02 445.49 267.61l196.75 188.67c35.63 44.25 60.43 68.66 99.47 122.06 200.92 274.88 334.11 610.66 345.08 976.14 8.26 275.11-36.48 513.61-131.25 743.34-71.93 174.36-189.86 366.87-317.24 505.19-34.12 37.05-72.07 79.95-110.09 111.4l-87.32 76.52c-20.75 17.39-41 32.11-63.23 49.09-82.52 62.99-170.59 114.75-272.78 167.33-206.62 106.32-463.19 167.7-701.77 178.71-276.11 12.74-520.88-40.42-748.9-131.61-99.51-39.8-209.16-98.01-288.07-152.04-87.95-60.23-124.68-85.99-201.42-153.59l-28.42-26.2c-39.96-36.81-59.04-49.41-97.98-96.35-13.27-16-33.37-34.5-51.47-57.82-8.12-10.45-15.53-18.38-25.01-29.54-76.05-89.43-160.78-223.71-216.02-336.35-97.51-198.8-171.2-447.37-178.04-701.15zM1752.01 2.91c-73.07 7.95-116.13 4.73-207.62 17.91-344.22 49.58-668.19 199.4-924.41 423.14L449.72 613.69c-8.57 8.26-17.86 19.12-25.68 28.91-120.39 150.82-196.2 261.11-278.96 452.68-206.61 478.26-189.04 1014.02 30.37 1483.54 49.1 105.07 107.07 197.9 167.49 281.74l73.06 93.89c37.4 46.02 98.01 111.42 137.18 148.19 351.68 330.09 793.67 514.41 1300.74 501.6 360.88-9.12 733.44-137.63 1005.29-341.46 22.72-17.04 41.88-31.61 63.74-48.58l61.82-50.51c5.92-5.22 7.59-8.23 13.94-13.35l102.64-97.74c151.66-162.58 267.46-327.02 357.95-540.57 252.21-595.15 170.66-1247.3-198-1765.1-16.24-22.81-31.61-42.39-48.38-63.95-8.46-10.87-15.68-19.01-24.72-29.85-43.68-52.32-89.25-104.07-137.13-148.27-167.4-154.5-321.96-265.13-542.74-358.87-106.44-45.19-220.44-81.23-342.93-107.02-104.71-22.04-306.5-47.68-413.38-36.04z" class="fil0"/><path d="M2259.74 1641.26c4.64 36.2 9.73 94.23 31.19 115.34 33.71 33.19 172.23 51.68 186.85-50.1 8.12-56.49 17.82-215.33-24.22-255.16-24.5-23.22-73.74-31.36-116.03-21.5-44.41 10.37-63.92 29.36-70.01 76.02-5.37 41.12-13.17 93.37-7.78 135.39zM1449.1 3461.95c.87-24.07 27.59-185.82 34.12-197.62 2.17 31.38 5.71 190.03 12.66 203.63 10.37 7 33.78 8.94 49.41 10.19l80.41-191.62-33.44 200.21 46.03 7.35c7.36-13.16 41.82-221.1 43.47-247.18-17.06-8.45-52.62-10.91-73.34-14.16-22.36 40.8-60.85 156.81-79.04 184.03l-12.6-199.94-75.42-11.75-42.05 248.37 49.78 8.5zM2474.75 3087.01c-12.33-6.01-43.76 14.79-53.74 23.3 8.76 24.3 113.89 198.34 121.32 220.83l44.48-23.96-86.3-154.87c35.6 16.94 75.79 45.1 111.07 65.45 19.09 11.01 36.28 22.61 55.35 33.02 12.3 6.71 15.66 1.92 26.86-4.55 10.45-6.04 16.72-9.35 28.13-15.97l-124.2-220.75-41.41 24.91c4 13.6 32.12 58.79 41.64 75.3 12.28 21.32 32.36 53.82 41.64 75.75-49.92-25.04-128.92-80.94-164.84-98.47zM1232.05 3243.86c-38 126.46-167.65 80.4-138.44-16.68 38.72-128.67 168.38-82.98 138.44 16.68zm54.99 0c7.82-41.1-1.91-75.72-25.27-100-21.96-22.83-54.26-39.94-87.8-43.56-73.38-7.92-122.07 62.05-134.55 123.98-16.5 81.83 41.05 137.55 113.06 144.94 72.89 7.48 122.49-61.83 134.56-125.36zM1313.62 247.82c35.84-9.99 89.58-37.76 102.21 7.3 7.7 27.45-8.03 36.5-28.17 42.57-19 5.73-37.46 11.7-56.27 15.28l-17.77-65.16zm-60.94-27.06 67.27 242.04 49.07-13.02-25.76-96.22c20.5-4.75 68.4-25.28 84.29-10.12 14.74 14.06 16.89 56.41 34.69 78.61 15.02-1.06 43.56-8.24 55.32-16.13-7.8-13.82-9.84-2.66-17.66-25.34-4-11.61-6.07-20.68-10.03-32.82-8.62-26.32-15.78-39.52-43.23-44.28 14.01-19.99 29.7-33.93 17.57-72.33-7.38-23.4-26.73-43-52.13-47.79-23.04-4.34-137.86 26.59-159.4 37.41zM2774.23 705.82l111.66-116.26c45.09 40.2 86.66 62.17 23.99 128.67-27.49 29.18-69.79 59.59-107.23 16.71-8.8-10.07-22.38-17.23-28.42-29.12zm-67.86-2.45c5.99 10.07 15.61 16.22 24.65 24.37 52.43 47.27 107.86 135.48 215.46 30.11 3.68-3.6 8.27-7.13 12.4-11.87 42.39-48.7 47.66-103.28-3.37-151.71-8.54-8.11-15.11-16.79-23.76-24.73-24.43-22.42-26.55-21.55-50.65-48.29-10.67 4.55-120.26 123.3-130.47 134.95-15.25 17.41-31.6 28.22-44.26 47.18zM2462.92 546.87c18.25 5.08 129.34 79.96 161.92 96.18 8.74-8.69 18.78-25.04 23.68-36.81-6.61-8.22-101.2-64.18-116.92-73.09 6.75-14.19 21.85-41.03 32.53-54.19l103 61.25 23.86-37.61-102.26-63.31 27.02-43.56c29.47 14 89.04 57.49 112.31 66.66l23.83-37.05c-19.05-14.62-55.92-34.98-77.56-47.72-22.92-13.49-59.01-38.93-79.83-47.64-6.68 6.31-127.39 204.07-131.57 216.86zM942.22 366.01c2.33 14.84 46.49 91.58 56.88 111.34 9.92 18.86 54.2 99.25 57.72 112.06l170.02-88.49-20.16-39.69-124.1 64.33-29.02-55.72c8.7-7.89 95.06-52.99 106.81-56.29l-19.41-40.88c-33.18 9.85-75.31 44.96-110.75 55.7l-22.64-45.82c20.19-11.27 101.1-56.79 116.62-60.15l-19.3-41.46-162.68 85.07zM2215.81 3246.8c8 5.35 52.79 73.79 56.51 83.27l-60.08 16.62 3.57-99.9zm84.2 121.69 30.46 44.68 53.12-13.87c-5.82-17.97-141.3-195.05-152.72-220.54l-59.17 16.06-17.06 268.79 53.16-16.68 2.46-53.23 89.75-25.22zM1869.17 3287.11c36.08-1.42 82.41-15.86 85.87 29.54 3.47 45.45-39.81 45.29-79.98 43.69-5.98-17.09-7.21-53.64-5.89-73.23zm-39.25 212.04 52.63-2.71-5.65-91.76c36.71-1.46 80.93-1.73 105.69-19.76 25.45-18.53 31.82-56.44 21.52-94-20.72-75.56-115.59-46.67-191.58-44.36l17.4 252.59zM915.84 581.18l-39.53 30.72c4.78 17.31 13.03 28.54 6.33 49.09-9.65 29.62-59.2 65.1-115.56-.11-16.31-18.88-44.22-54.79-26.64-90.42 6.36-12.9 17.99-22.59 32.05-28.56 25-10.62 33.97 1.4 52.29 7.84l38.8-34.31c-20.09-15.76-45.53-32.53-84.23-24.99-31.96 6.23-53.89 26.44-70.17 42.78-18.18 18.25-29.32 52.63-23.52 87.61 5.32 32.16 22.66 54.52 38.58 73.73 82.25 99.23 184.22 40.72 205.1-23.28 9.4-28.82 4.83-69.63-13.5-90.1zM902.23 3140.67c-4.31-6.26-30.37-25.69-37.99-31.14-16.38 3.65-22.01 16.45-45.16 14.76-39.77-2.9-74.57-53.93-25.78-115.37 28-35.27 80.08-71.33 117.79-18.33 14.28 20.06 8.6 30.98 2.84 52.95l41.37 30.89c17.3-24.46 19.76-62.62 5.74-91.17-11.01-22.42-33.74-44.42-55.96-56.56-109.3-59.7-247.13 113.59-158.17 206.78 57.33 60.05 132.03 39.49 155.32 7.2zM2054.15 403.77l52.21 13.04 23.74-103.17 109.4 24.87c3.03-16.86 9.65-34.01 5.89-43.36l-103.57-24.84 11.91-56.38 124.13 28.69 10.02-42.5-175.79-41.84-57.95 245.48zM1804.97 1153.44c36.21 2.27 146.88-11.77 176.39-25.14-3.09-23.8-50.34-93.92-62.52-107.48-30.96-34.46-44.19-54.09-75.39-48.82-13.1 2.21-24.54 2.79-38.27 4.52l-.21 176.92zM1778.58 975.74c-51.27-1.69-48.15-14.21-71.11 3.19-39.87 30.22-93.5 105.89-106.08 150.51 64.48 11.4 106.45 21.36 177.57 24.95l-.38-178.65zM1604.42 2081.37c10.82 48.45 68.25 116.85 105.74 146.81 23.37 18.67 34.32 6.7 68.67 6.08l.13-178.35c-45.31 1.96-137.32 8.88-174.54 25.46zM1805.16 2233.48c44.63 5.24 57.4 13.37 91.02-24.74 8.49-9.63 12.68-10.25 20.95-21.6 16.04-22.02 55.61-74.24 62.92-105.76-25.73-13.31-140.69-26.12-174.93-24.77l.05 176.88zM2847.76 2947.75c-27.75-7.84-58.28-23.31-86.4-34.86-36.87-15.14-22.4-8.13-69.23 30.5 11.58 11.72 154.45 52.28 165.47 58.64 13.29 7.68 49.23 53.2 62.33 65.29.49.45 1.28 1.09 1.74 1.49l3.69 2.9c6.86-4.4 32.8-28.52 37.45-34.23-4.09-7.45.19-.61-4.18-5.71-70.91-82.67-49.13-29.06-83.46-165.27l-19.63-70.24c-.7.43-1.66.41-1.96 1.47l-5.44 4.55c-60.32 54.58-29.97 12.88-.37 145.48zM1435.74 2420.8c-43.52 10.6-46.76 71.42-45.79 118.9.93 45.8 14.73 107.28 67.74 95.76 41.5-9.02 47.59-73.14 45.51-120.06-2.08-46.79-15.42-107.29-67.45-94.6zM2186.38 2421.41c-45.23 14.93-46.93 79.67-44.72 121.44 2.4 45.39 17.5 108.48 70.95 91.65 38.65-12.17 43.9-75.05 42.09-122.24-1.69-44.18-17.84-107.53-68.32-90.85zM1220.47 2420.99c-46.71 12.25-47.2 80.36-45.46 121.76 1.89 44.98 17.88 109.51 72.15 91.56 58.7-19.4 61.82-236.53-26.7-213.32zM1584.31 142.86l1.35 42.67c20.26 6.41 53.02-4.21 76.06-1.32 2.36 34.34 8.75 185.26 16.05 204.67l49.91-2.52-13.14-206.71 73.92-5.89c1.41-14.28.83-34.39-4.44-44.5l-199.69 13.61zM1793.11 874.8c-33.35-.05-152.32 6.74-172.45 22.58 116.62 74.91 226.64 66.57 342.61.68-4.19-3.64.82-1.25-7.95-4.73-27.95-11.09-136.72-18.51-162.2-18.53zM1624.86 2308.13c17.19 18.42 146.4 23.48 165.22 23.52 28.32.06 59.5-1.63 86.72-4.79 28.16-3.26 55.93-10.98 82.18-13.21-5.87-9.46 1.31-1.06-7.41-8.17l-25.24-14.47c-12.91-6.17-25.18-11.53-38.92-15.74-62.95-19.31-122.77-20.9-186.79-1.1-30.12 9.31-52.95 26.16-75.76 33.96zM1960.69 1033.55c13.87 20.16 40.43 61.15 46.28 87.34 26.24-5.34 99.96-32.82 114.87-47.22-15.8-30.27-112.11-93.2-160.03-114.22-27.81-12.21-31.92-16.31-57.8-2.28-4.39 2.38-4.35 2.58-6.24 4.2 29.99 32.31 26.77 19.68 62.92 72.19zM1574.55 1119.83c15.34-23.8 21.44-46.93 49.46-87.81 28.65-41.79 35.64-40.7 62.37-70.65l-32.58-13.3c-15.13.27-78.93 35.3-91.56 43.39-26.09 16.7-84.54 58.42-100.02 82.21 12.8 11.76 90.68 43.52 112.33 46.16zM1464.42 2132.08c15.61 26.08 69.19 64.27 100.16 83.8 19.58 12.35 38.78 21.32 60.09 30.96 27.96 12.65 38.13 18.8 65.69 1.47l-33.64-33.61c-33.55-32.44-56.28-82.09-79.12-124.16-30.33-.53-85.43 35.07-113.17 41.53zM1893.48 2248.31c27.29 17.6 37.83 10.96 65.28-1.16 21.43-9.46 41.39-19.23 60.1-30.99 27.91-17.54 89.5-62.21 100.98-84.58-31.47-6.59-77.84-39.46-114.57-41.96-10.34 37.64-50.05 92.78-77.07 123.77-11.22 12.86-23.46 21.53-34.73 34.91zM1963.69 931.01c102.15 55.01 69.7 34.07 144.62 91.57 15.86 12.17 22.16 26.74 39.95 37.65 13.15-4.32 64.43-36.83 71.63-49.11-16.39-6.33-42.78-26.95-62.17-38.08-19.54-11.22-41.58-23.16-64.07-33.07-17.68-7.79-86.87-41.82-103.23-30.49l-26.73 21.53zM1367.39 2193.67l13.59 11.53c51.23 35.64 119.47 68.44 178.57 88.5 46.49 15.78 30.06 2.04 66.69-14.59-10.72-12.34-36.22-19.06-52.2-27.38-78.25-40.76-119.85-94.21-136.09-103.56-13.67 6.26-57.42 33.21-70.57 45.51zM1957.7 2278.44c41.88 22.71 24.44 29.66 63.88 16.33 24.77-8.37 46.93-16.7 69.81-27.31l119.78-68.79c3.74-3.13 2.78-2.17 5.43-5-.59-.6-1.49-2.32-1.8-1.76l-14.62-10.85c-14.87-9.34-40.09-28.1-54.97-32.75-27.51 24.49-50.81 48.2-85.48 72.17-15.49 10.71-31.43 20.29-48.53 30.26-12.4 7.24-46.16 19.99-53.51 27.7zM1434.92 1060.3c7.12-5.72 12.24-12.19 19.29-18.95 38.64-36.99 123.54-98.35 167.23-108.87l-16.08-14.24c-3.87-2.55-10.41-8.03-14.13-10.21-14.27-8.36-88.38 26.23-103.49 33.2l-95.93 52.83c-11.6 7.51-22.32 12.98-27.65 23.15l70.75 43.09zM1892.27 384.59l53.08 5.32 20.03-253.17-52.22-3.01zM2313.07 478.37l47.44 20.6 96.46-232.32-47.45-20.75zM1001.71 2420.78c-64.79 14.87-53.5 137.95 28.96 115.86 29.32-7.85 42.92-36.53 35.96-75.01-5.46-30.16-31.19-48.59-64.91-40.85z" class="fil0"/><path d="M2405.34 2466.94c10.4 40.83-3.78 142.96 2.78 193.66l37.3-.92-.27-271.29c-10.23-2.72-13.16-3.81-24-1.08l-5.75 3.04 27.24-.63.3 268.5-33.16.18.09-146.02c.01-8.12-.02-16.22.09-24.33.37-27.56-.49-18.66-4.62-21.1z" style="fill:#8ab6e5"/><path d="m1842.04 2655.35-38.53-.32.35-33.93 38.66.91c-4.33-3.59 2.79-2.21-9.78-4l-31.17.32 1.45 41.56c6.82.06 13.7.22 20.51.25 20.65.11 15.99-.8 18.51-4.78z" class="fil2"/><path d="M1801.61 2500.37c7.66 6.33 32.77 4.6 40.92 1.13 1.23-12.18 2.82-31.83-1.96-40.59l.4 39.89-39.35-.42z" style="fill:#6996c7"/><path d="M1777.36 2029.57c5.08-6.37 3.34.41 3.82-19.07l21.45-.28c-.01 1.93-.38 9.74-.24 10.47 1.55 8.24.12 4.11 4.34 8.43l-1.4-22.71-26.35-.17-1.62 23.33z" class="fil2"/></g></svg>