<svg id="Capa_1" data-name="Capa 1" xmlns="http://www.w3.org/2000/svg" xmlns:xlink="http://www.w3.org/1999/xlink" viewBox="0 0 186.1 186.1"><defs><style>.cls-1{fill:#fff;}.cls-2{fill:url(#Nueva_muestra_de_degradado_1);}.cls-3{fill:url(#Nueva_muestra_de_degradado_1-2);}.cls-4{fill:url(#Nueva_muestra_de_degradado_1-3);}.cls-5{fill:url(#Nueva_muestra_de_degradado_1-4);}.cls-6{fill:url(#Nueva_muestra_de_degradado_1-5);}.cls-7{fill:url(#Nueva_muestra_de_degradado_1-6);}.cls-8{fill:url(#Nueva_muestra_de_degradado_1-7);}.cls-9{fill:url(#Nueva_muestra_de_degradado_1-8);}</style><linearGradient id="Nueva_muestra_de_degradado_1" x1="17.19" y1="111.73" x2="203.29" y2="111.73" gradientUnits="userSpaceOnUse"><stop offset="0.05" stop-color="#a68011"/><stop offset="0.56" stop-color="#d9a652"/><stop offset="0.95" stop-color="#a68011"/></linearGradient><linearGradient id="Nueva_muestra_de_degradado_1-2" x1="198.79" y1="112.39" x2="21.93" y2="110.91" xlink:href="#Nueva_muestra_de_degradado_1"/><linearGradient id="Nueva_muestra_de_degradado_1-3" x1="27.42" y1="111.73" x2="193.06" y2="111.73" xlink:href="#Nueva_muestra_de_degradado_1"/><linearGradient id="Nueva_muestra_de_degradado_1-4" x1="48.62" y1="115.14" x2="169.11" y2="115.14" xlink:href="#Nueva_muestra_de_degradado_1"/><linearGradient id="Nueva_muestra_de_degradado_1-5" x1="48.62" y1="112.73" x2="169.11" y2="112.73" xlink:href="#Nueva_muestra_de_degradado_1"/><linearGradient id="Nueva_muestra_de_degradado_1-6" x1="31.43" y1="88.9" x2="151.92" y2="88.9" xlink:href="#Nueva_muestra_de_degradado_1"/><linearGradient id="Nueva_muestra_de_degradado_1-7" x1="48.62" y1="112.74" x2="169.11" y2="112.74" xlink:href="#Nueva_muestra_de_degradado_1"/><linearGradient id="Nueva_muestra_de_degradado_1-8" x1="31.43" y1="94.98" x2="151.92" y2="94.98" xlink:href="#Nueva_muestra_de_degradado_1"/></defs><circle class="cls-1" cx="92.77" cy="95.27" r="90.83"/><path class="cls-2" d="M110.24,23.12a88.61,88.61,0,1,1-88.61,88.61,88.71,88.71,0,0,1,88.61-88.61m0-4.44a93,93,0,1,0,93.05,93.05,93.05,93.05,0,0,0-93-93.05Z" transform="translate(-17.19 -18.68)"/><path class="cls-3" d="M110.22,23.18h-.35l0,6.22h.33V23.18ZM92.24,25l-.08,0h0l-.12,0h-.11l1.28,6.08.32-.06L92.24,25ZM75,30.47l-.28.12,0,0,2.49,5.69.31-.13L75,30.47ZM59.24,39.33l0,0-.27.19,3.61,5.06.27-.19-3.59-5.08ZM45.61,51.2l-.25.26,4.56,4.23.22-.24L45.61,51.2Zm-11,14.39-.09.14v0h0v0h0l-.07.1,5.32,3.22.17-.28-5.3-3.24Zm-7.81,16.3,0,.11h0v0c0,.06-.05.13-.08.2l5.86,2.07.11-.31-5.85-2.1Zm-4.3,17.56v0l0,.24v0h0v.06l6.16.83,0-.32-6.15-.86Zm5.54,17.67-6.2.4c0,.12,0,.24,0,.36l6.2-.43,0-.33Zm2.79,16.58-6,1.65a2,2,0,0,0,.07.26l0,.08L31,134l-.08-.32ZM37,149.35l-5.53,2.84c.05.09.1.18.14.27l0,0h0v0l5.51-2.87-.15-.29Zm9.18,14.08-4.83,3.91.22.28,4.82-3.93-.21-.26ZM58,175.38l-3.94,4.8.27.22,3.93-4.81-.26-.21Zm14,9.29-2.89,5.51.16.08h0l.14.07,2.86-5.51-.29-.16Zm15.6,6.25-1.7,6,.09,0h.11l.14,0,1.68-6-.32-.09Zm16.55,2.92-.45,6.2.35,0,.43-6.2-.33,0Zm17.15-.51-.33,0,.8,6.17.36,0-.83-6.16Zm16.33-3.93-.31.11,2,5.86.27-.09h.06l-2.07-5.86Zm15.19-7.19-.28.17,3.2,5.32h0l0,0h0l.26-.16h0l-3.22-5.31Zm13.43-10.14-.25.23,4.21,4.57.1-.09h0l0,0h0l0,0h0l0,0h0l0,0h0l0,0h0l-4.22-4.56Zm11.09-12.63-.19.27,5.05,3.62.21-.29-5.07-3.6Zm8.31-14.62-.14.3,5.68,2.53.15-.33-5.69-2.5Zm5.14-16-.07.32,6.08,1.31c0-.12,0-.23.07-.35l-6.08-1.28Zm1.77-16.41,6.22.07h0l-6.22-.07Zm0,0,6.22.06h0l-6.22-.06Zm0-.33v.32l6.22,0v0h0v0h0v-.25l-6.22,0Zm4.47-18L191,95.36l.07.33,6.09-1.21c0-.11,0-.23-.07-.35Zm-5.37-17.26L186,79.32l.13.31,5.72-2.43-.13-.33Zm-8.79-15.8-5.1,3.56.19.27,5.11-3.54-.07-.1v0h0l-.11-.17ZM171.07,47.38,166.8,51.9l.24.22,4.29-4.5-.25-.23Zm-14.33-11-3.27,5.28.28.18L157,36.54l0,0h0l-.11-.07h0l0,0-.09,0Zm-16.27-7.89-2.12,5.85.31.11,2.14-5.83-.2-.08h-.13Zm-17.54-4.39-.88,6.16.33,0,.9-6.15-.16,0h0l-.12,0Z" transform="translate(-17.19 -18.68)"/><path class="cls-4" d="M110.24,29.79A81.94,81.94,0,1,1,28.3,111.73a82,82,0,0,1,81.94-81.94m0-.88a82.82,82.82,0,1,0,82.82,82.82,82.82,82.82,0,0,0-82.82-82.82Z" transform="translate(-17.19 -18.68)"/><path class="cls-5" d="M49.66,90.06v45.35a.94.94,0,0,0,1,1H63.44v3.86a.94.94,0,0,0,1,.95h6a.94.94,0,0,0,.95-.95v-3.86H84.07a1,1,0,0,0,1-1V90.06a1,1,0,0,0-1-1H50.61A.94.94,0,0,0,49.66,90.06Zm26.49,38.42H71.32V117.61a.94.94,0,0,0-.95-1h-6a.94.94,0,0,0-1,1v10.87H58.62a.94.94,0,0,1-.95-.95V97.93a1,1,0,0,1,.95-1H76.15a1,1,0,0,1,.95,1v29.6A1,1,0,0,1,76.15,128.48Z" transform="translate(-17.19 -18.68)"/><path class="cls-6" d="M169.7,128.48H155.37a.93.93,0,0,1-.84-.51l-4.95-9.43h6.48a1,1,0,0,0,.95-1V90.06a.94.94,0,0,0-.95-1H132.19a.94.94,0,0,0-.95,1v45.35a.94.94,0,0,0,.95,1h6.11a1,1,0,0,0,.95-1V118.54h1.27l9.09,17.31a1,1,0,0,0,.84.51H169.7a1,1,0,0,0,1-1v-6A1,1,0,0,0,169.7,128.48ZM139.25,110.3V97.92a1,1,0,0,1,.95-1h8.22a1,1,0,0,1,1,1v11.43a.94.94,0,0,1-1,1Z" transform="translate(-17.19 -18.68)"/><rect class="cls-7" x="145.61" y="70.42" width="7.85" height="36.95" rx="0.95"/><path class="cls-8" d="M90.79,90.06v45.35a1,1,0,0,0,.95,1h32.77a.94.94,0,0,0,.95-1V90.06a1,1,0,0,0-.95-1H91.74A1,1,0,0,0,90.79,90.06Zm25.71,38.42H99.75a1,1,0,0,1-1-.95V97.93a1,1,0,0,1,1-1H116.5a1,1,0,0,1,1,1v29.6A.94.94,0,0,1,116.5,128.48Z" transform="translate(-17.19 -18.68)"/><rect class="cls-9" x="87.39" y="90.11" width="7.1" height="9.75" rx="0.54"/></svg>